<?xml version="1.0" encoding="UTF-8"?>
<svg width="400" height="150" version="1.1" xmlns="http://www.w3.org/2000/svg">
 <path d="m240.73 92.37-0.20074 0.0732c-1.2963 0.4798-3.12 0.88008-4.6497 1.0227l-0.13556 0.0111v1.0716l0.12208 0.0217c1.7612 0.27614 1.9044 0.29837 1.9044 2.1241v14.345c0 1.8686-0.11 1.9896-1.9695 2.1729l-0.13292 0.0162v1.1583h7.1183v-1.1583l-0.13292-0.0162c-1.8538-0.18688-1.926-0.26887-1.926-2.1729v-3.22c0.1391-0.021 0.29097-0.0215 0.34451-0.0163 0.18688 6e-3 0.34304 0.12611 0.72432 0.57239 0.12236 0.13333 2.6467 3.2442 3.9986 4.9128 0.49975 0.61481 0.8508 1.0485 0.89521 1.1041l0.0461 0.0569 0.076-6e-3c0.68338-0.0368 2.4892-0.0671 4.3133-0.0597h0.14649v-1.1638l-0.13556-3e-3c-1.1352-0.0776-1.5252-0.16196-2.8864-1.549-0.88706-0.96301-3.8118-4.3839-4.5656-5.4228 0.6889-0.83336 1.864-2.1727 2.39-2.7209 1.2408-1.3019 1.9098-1.5524 3.9172-1.8691l0.12473-0.0217v-1.1231l-6.573 0.28212v1.1475l0.13569 0.0111c0.4777 0.042 1.127 0.12945 1.2289 0.34993 0.0536 0.12015-0.0249 0.32899-0.24685 0.64563-0.48139 0.72964-1.5941 2.0743-2.2923 2.7725-0.47246 0.49816-0.9829 0.80948-1.6385 0.99285zm-61.558 6e-3 -0.19532 0.0706c-1.0167 0.36483-2.943 0.83567-4.6578 1.0227l-0.13015 0.0111v1.077l0.12751 0.0217c1.7945 0.2483 1.8989 0.36771 1.8989 2.0915v14.364c0 1.9223-0.16585 1.9967-1.9749 2.1838l-0.13292 0.0163v1.1556h7.1535v-1.1556l-0.13292-0.0163c-1.8648-0.18164-1.9559-0.28387-1.9559-2.1838zm-110.4 3e-3 -0.19532 0.0651c-1.1945 0.40213-3.3899 0.8217-4.9399 1.0254l-0.1275 0.0139v1.0905l0.13292 0.0111c2.0019 0.1832 2.1675 0.19767 2.1675 1.9993v4.0664c-0.72224-0.22206-1.6468-0.22788-1.7579-0.22788-4.4575 0-8.084 3.3698-8.084 7.5143 0 4.4464 3.4172 6.8172 5.884 6.8172 0.26111 0 1.0038-0.0833 2.3113-0.84094 0.27591-0.17219 0.60883-0.3644 0.94404-0.55884 0.24257-0.14068 0.4841-0.27996 0.7026-0.40962v1.8718l0.19261-0.0652c1.6389-0.55555 3.6048-0.90133 4.5493-1.0661 0.14074-0.0263 0.25748-0.0408 0.34453-0.0597l0.12209-0.0217v-1.1339l-1.0526-0.0732c-1.0297-0.0703-1.1936-0.19466-1.1936-1.7172zm-51.583 1.6222c-3.2408 0-6.5242 1.8782-6.5242 5.4635 0 2.8852 1.7873 4.4007 5.0837 6.1878 2.5686 1.3963 3.7789 2.2932 3.7789 4.4896 0 1.95-1.3142 3.2607-3.2662 3.2607-2.952 0-4.3344-2.5328-4.9752-4.6551l-0.038-0.13292-1.2479 0.31196 0.019 0.13015c0.20368 1.5371 0.59934 3.8403 0.83824 4.6903l0.019 0.0732 0.0705 0.0271c1.3241 0.49084 2.9256 0.99559 4.7609 0.99559 4.0094 0 6.9202-2.4597 6.9202-5.8487 0-3.0075-1.7858-4.4744-5.3007-6.28v3e-3c-2.489-1.2797-3.7518-2.2846-3.7518-4.2346 0-1.4926 0.78126-3.0871 2.9813-3.0871 2.7964 0 3.5673 2.0058 4.0691 3.8874l0.0353 0.1357 1.2452-0.25228-0.0163-0.1357c-0.21665-1.7501-0.34819-2.9316-0.46117-3.9742l-0.0515-0.46117-0.10847-0.0217c-0.12778-0.021-0.29454-0.06-0.49645-0.10306-0.80558-0.17429-2.1594-0.46931-3.5835-0.46931zm78.976 6e-3c-6.9002 0-11.719 4.3569-11.719 10.596 0 5.0983 3.4524 10.243 11.171 10.243 2.1297 0 4.2952-0.46308 5.336-0.68903l0.30926-0.0678 0.0325-0.0651c0.44816-0.94077 1.2348-3.1136 1.6792-4.647l0.0379-0.13292-1.2045-0.41776-0.057 0.11389c-1.6482 3.2538-3.2079 4.4082-5.9653 4.4082-4.6242 0-7.6093-3.6877-7.6093-9.3916 0-5.2372 2.7936-8.4882 7.2919-8.4882 1.1186 0 2.3043 0.20951 3.0247 0.53713 1.4 0.57035 2.1968 1.6503 2.8375 3.8467l0.038 0.13015 1.2587-0.26857-0.0244-0.13833c-0.30184-1.8871-0.51311-4.1013-0.57239-4.7365l-0.0111-0.11667-0.11389-0.0163c-0.21481-0.0315-0.49148-0.082-0.81926-0.14649-1.15-0.22048-2.8894-0.5534-4.9209-0.5534zm-21.054 0.14379c-1.0593 0-1.8854 0.83407-1.8854 1.8989 0 0.98334 0.86575 1.8474 1.8528 1.8474 0.99449 0 1.8338-0.84551 1.8338-1.8474 0-1.0649-0.79198-1.8989-1.8013-1.8989zm111.74 0.2767v1.18l0.13292 0.0111c2.3667 0.19844 2.5581 0.4054 2.5581 2.7941v12.026c0 2.376-0.14516 2.5301-2.5636 2.7616l-0.13292 0.0111v1.1773h7.7748c2.2519 0 3.8677-0.36233 5.4011-1.2126 1.9093-1.0445 3.0057-2.7854 3.0057-4.7799 0-2.5024-1.6603-4.1771-4.807-4.8667 1.8313-0.6159 3.5917-2.0629 3.5917-4.5086 0-1.4667-0.64238-2.6816-1.861-3.5076-1.0963-0.74076-2.6238-1.0851-4.7961-1.0851zm7.6852 1.4296c2.4483 0 3.9118 1.3391 3.9118 3.5835 0 2.4593-1.398 3.6053-4.4055 3.6053h-1.332v-5.629c0-0.85745 0.0579-1.1485 0.26315-1.2967 0.25931-0.17953 0.76997-0.26314 1.5625-0.26313zm-53.384 0.31195-0.0569 0.0515c-0.31854 0.30396-0.72505 0.66197-1.1176 1.0064-0.41665 0.36694-0.84744 0.74206-1.1882 1.0661l-0.0433 0.0433v2.4523h-1.2831l-0.93048 1.039 0.19531 0.54526h2.0183v8.594c0 2.5168 1.0943 3.7924 3.2499 3.7924 0.27964 0 0.78427-0.10695 1.351-0.40148l2.1566-1.1285-0.36893-1.115-0.14921 0.0678c-0.60927 0.29083-1.1885 0.43675-1.7145 0.43675-1.0408 0-1.568-0.91182-1.568-2.71v-7.5387h3.0844l0.0353-0.0271c0.21853-0.16274 0.36814-0.45714 0.40148-0.7867 0.0294-0.29083-0.0371-0.55405-0.18719-0.71889l-0.0433-0.0488h-3.2906c-4e-3 -1.4982 0.0286-3.1565 0.0842-4.3621l6e-3 -0.12473zm-15.916 4.0881-0.20617 0.0868c-1.2297 0.52023-2.7622 0.93075-4.4326 1.1882l-0.1275 0.0217v1.0688l0.12208 0.0217c1.5149 0.26091 1.6738 0.28787 1.6738 2.1566v6.2448c0 1.9445-0.14802 1.9618-1.9722 2.1729l-0.12751 0.0163v1.1584h6.9148v-1.1611l-0.13014-0.0139c-1.6297-0.1743-1.7253-0.18649-1.7253-2.1512v-7.0586c1.0537-0.91111 2.0684-1.3727 3.0166-1.3727 1.6519 0 2.4903 1.0986 2.4903 3.2635v5.024c0 2.039-0.16567 2.1264-1.7009 2.295l-0.13292 0.0111v1.1583h6.6734v-1.1556l-0.13292-0.0163c-1.6178-0.17944-1.7496-0.19197-1.7497-2.1539v-5.7459c0-3.0186-1.5694-4.8938-4.0935-4.8938-0.99447 0-1.8164 0.43675-2.5608 0.90877-0.71299 0.45934-1.3261 0.88285-1.8094 1.218 1e-3 -0.67965 6e-3 -1.5031 0.0111-2.0698zm99.002 0-0.20618 0.0868c-1.2296 0.52023-2.7631 0.93075-4.4353 1.1882l-0.1275 0.0217v1.0688l0.12472 0.0217c1.5149 0.26091 1.6738 0.28787 1.6738 2.1566v6.2448c0 1.9445-0.14792 1.9618-1.9722 2.1729l-0.13015 0.0163v1.1584h6.9175v-1.1611l-0.13292-0.0139c-1.6296-0.1743-1.7253-0.18649-1.7253-2.1512v-7.0586c1.0537-0.90928 2.0702-1.3727 3.0166-1.3727 1.6538 0 2.4903 1.0986 2.4903 3.2635v5.024c0 2.039-0.16865 2.1264-1.7036 2.295l-0.12751 0.0111v1.1583h6.6707v-1.1556l-0.13014-0.0163c-1.6178-0.17944-1.7523-0.19197-1.7524-2.1539v-5.7459c0-3.0186-1.5685-4.8938-4.0908-4.8938-0.99446 0-1.8172 0.43675-2.5636 0.90877-0.71114 0.45934-1.3261 0.88285-1.8094 1.218 0-0.67965 6e-3 -1.5031 0.0111-2.0698zm-70.694 8e-3 -0.20616 0.0842c-1.3982 0.57781-2.8083 0.96717-4.4435 1.2153l-0.12487 0.019v1.0444l0.12751 0.0139c1.5926 0.2147 1.6873 0.23028 1.6873 2.097v6.3533c0 1.8945-0.1332 1.9519-1.8962 2.1241l-0.13015 0.0163v1.1611h7.4384v-1.1611l-0.1357-0.0111c-2.2334-0.18531-2.3194-0.26785-2.3194-2.1512v-5.667c0.66296-1.5 1.6743-2.1973 2.1539-2.1973 0.46878 0 0.7925 0.27948 1.2777 0.74601 0.30185 0.26458 0.62376 0.29337 0.9793 0.095 0.57783-0.31655 1.199-1.0614 1.199-1.9559 0-0.8278-0.66734-1.6656-1.9396-1.6656v-3e-3c-1.4074 0-2.5936 1.3508-3.6677 2.9027zm-76.812 0.0353-0.19803 0.076c-1.3352 0.52023-2.8417 0.91982-4.4788 1.1828l-0.1275 0.0217v1.0227l0.1275 0.0217c1.6741 0.27035 1.7199 0.32995 1.7199 2.1594v6.1742c0 2.0093-0.16208 2.0819-1.9288 2.2597l-0.13292 0.0162v1.1584h7.1427v-1.1584l-0.13292-0.0162c-1.8223-0.17587-1.9912-0.24844-1.9912-2.2597v-3e-3zm35.635 0.12208c-1.6612 0-3.3606 0.8185-4.6551 2.2408-1.3112 1.3816-2.0617 3.3579-2.0617 5.4228 0 3.3149 2.1117 6.668 6.1525 6.668 0.47781 0 2.9717-0.1477 5.2329-3.0627l0.0651-0.0842-0.64834-0.94404-0.1275 0.11389c-1.0908 0.9889-2.2018 1.4703-3.4018 1.4703-1.0926 0-2.117-0.42671-2.8836-1.2045-0.93152-0.94259-1.4224-2.346-1.4242-4.0664 3.3056-0.11862 7.2631-0.37246 7.9131-0.50999 0.58706-0.14805 0.65411-0.61305 0.67818-1.1556v-3e-3c1e-3 -1.2723-0.52708-2.5372-1.4567-3.4669-0.91114-0.91484-2.1143-1.4188-3.3828-1.4188zm-81.41 3e-3c-1.889 0.40001-3.7746 1.6374-4.495 2.1485-0.64447 0.44989-1.0743 0.85512-1.0743 1.3699 0 0.81855 0.85611 1.5218 1.5598 1.5218 0.57224 0 0.9189-0.27603 1.1041-0.89248 0.26112-0.8612 0.44744-1.4834 0.76229-1.8908 0.35187-0.42783 0.75374-0.62664 1.2723-0.62664 1.4852 0 2.3736 1.1513 2.3736 3.0736v0.66462c-0.67038 0.50185-2.704 1.21-4.3486 1.7823l-0.34994 0.12472c-1.7408 0.61666-2.5527 1.6188-2.5527 3.1522 0 1.8778 1.4959 3.9009 3.9145 3.9009 0.80927 0 2.0646-0.85669 3.1739-1.6141 0.10375-0.0688 0.20112-0.13681 0.30112-0.20345 0.13334 0.40158 0.32739 0.8114 0.71074 1.1855 0.3389 0.36116 1.0317 0.63206 1.6114 0.63206h0.0381l2.8321-1.6304-0.40419-1.1556-0.15192 0.0786c-0.37592 0.19791-0.71139 0.30112-0.99287 0.30112-0.74262 0-0.89793-0.90804-0.89793-1.671v-5.7293c0-1.6315-0.48144-2.7278-1.6222-3.6649-0.7204-0.55188-1.685-0.85722-2.748-0.85722zm135.83 0c-1.8908 0.40001-3.7746 1.6374-4.495 2.1485-0.64449 0.44989-1.0743 0.85512-1.0743 1.3699 0 0.81855 0.85792 1.5218 1.5598 1.5218 0.5722 0 0.91918-0.27765 1.0932-0.86265l0.0111-0.0353c0.25933-0.8574 0.44736-1.4771 0.76229-1.8826 0.35013-0.42783 0.75373-0.62665 1.2723-0.62665 1.4852 0 2.3737 1.1486 2.3737 3.0708v0.66732c-0.67042 0.50185-2.7068 1.21-4.3513 1.7823l-0.34994 0.12473c-1.7427 0.61665-2.5527 1.6161-2.5527 3.1495 0 1.8778 1.4987 3.9037 3.9172 3.9037 0.80743 0 2.0619-0.8567 3.1712-1.6141 0.10181-0.0688 0.20295-0.13951 0.30112-0.20618 0.13542 0.40158 0.32533 0.81411 0.71074 1.1882 0.33912 0.36116 1.0317 0.63208 1.6114 0.63208h0.0379l2.8321-1.6304-0.40419-1.1584-0.1492 0.0786c-0.37587 0.19791-0.70956 0.30112-0.99288 0.30112-0.74075 0-0.89791-0.90804-0.89791-1.671v-5.7293c0-1.6316-0.48346-2.7278-1.6222-3.6649-0.7204-0.55188-1.6869-0.85722-2.748-0.85722zm45.067 0c-1.8927 0.40001-3.7774 1.6346-4.4978 2.1458-0.64448 0.44987-1.0742 0.85783-1.0742 1.3726 0 0.81855 0.85797 1.5218 1.5598 1.5218 0.57224 0 0.91894-0.27788 1.1041-0.89248 0.26143-0.86303 0.44846-1.4834 0.765-1.8908 0.35015-0.42783 0.75373-0.62664 1.2723-0.62664 1.4852 0 2.3736 1.1486 2.3736 3.0708v0.66734c-0.67041 0.50185-2.7059 1.21-4.3485 1.7823l-0.34995 0.12472c-1.7426 0.61666-2.5527 1.6188-2.5527 3.1522 0 1.8778 1.496 3.9009 3.9145 3.9009 0.80931 0 2.0646-0.85669 3.1739-1.6141 0.10181-0.0688 0.20025-0.13681 0.29841-0.20345 0.13334 0.40158 0.32717 0.8114 0.71075 1.1855 0.33911 0.36116 1.0317 0.63206 1.6114 0.63206h0.038l2.8321-1.6304-0.4042-1.1556-0.15191 0.0786c-0.37429 0.19791-0.70951 0.30112-0.99288 0.30112-0.74075 0-0.8952-0.90804-0.8952-1.671v-5.7293c0-1.6334-0.48428-2.7278-1.6249-3.6649-0.72038-0.55188-1.6842-0.85722-2.7453-0.85722zm-168.39 0.11931-0.18719 0.0325c-0.93707 0.15749-3.0938 0.47041-4.5439 0.53713l-0.14106 6e-3v1.0797l0.92504 0.17632c0.64262 0.13709 0.88436 0.1896 0.88436 1.7877v5.9409c0 4.1946 2.7698 4.6496 3.9606 4.6496 1.6352 0 2.9278-0.90376 4.4001-2.1187v2.1648l0.1899-0.0543c1.8112-0.50763 3.429-0.86251 4.8124-1.0607l0.12486-0.019v-1.1448l-0.95489-0.0407c-1.0092-0.0608-1.2091-0.20123-1.2099-1.671v-10.262l-0.1709 0.0325c-0.8778 0.14803-3.0401 0.45203-4.9291 0.53711l-0.13833 6e-3v1.0851l1.0824 0.1492c0.88705 0.13541 1.1936 0.26088 1.1936 1.8148v7.0315c-0.89632 0.83893-1.8799 1.2642-2.9244 1.2642-0.92594 0-2.4822-0.40629-2.4822-3.1305v-4.1701c0-1.9612 8e-3 -3.4289 0.0922-4.4326zm68.196 1.3401c0.61298 0 1.1628 0.23031 1.5924 0.66734 0.54076 0.55187 0.84321 1.3738 0.82468 2.2516 0 0.34647-0.0774 0.45268-0.55882 0.45846h-6e-3c-1.6278 0.0761-3.2006 0.0838-4.7229 0.0894 0.37225-2.0834 1.5126-3.4669 2.8701-3.4669zm-48.724 0.0461c1.2093 0 2.3034 0.54528 2.8701 1.4323v8.2272c-0.63891 0.44988-1.6403 0.91419-2.607 0.91419-1.913-0.0315-3.947-1.9536-3.947-5.4499 0-4.878 3.0691-5.1244 3.6839-5.1244zm129.77 2.512h1.2343c3.7316 0 5.5422 1.3905 5.5422 4.2536 0 3.1464-2.2986 4.267-4.2672 4.2726-1.0556 0.0111-1.6329-0.14472-1.9884-0.49643-0.36694-0.36484-0.52085-0.99237-0.52085-2.0942zm-160.25 2.7507v4.4381c-0.54446 0.51287-1.4453 0.8952-2.1268 0.8952-0.763 0-1.9722-0.59039-1.9722-2.1756 0-1.0574 0.67877-1.5833 1.6955-2.0481l0.33638-0.15191c0.6426-0.29083 1.4949-0.67613 2.0671-0.95761zm135.83 0v4.4381c-0.54632 0.51287-1.448 0.8952-2.1295 0.8952-0.76112 0-1.9695-0.59039-1.9695-2.1756 0-1.0574 0.67881-1.5833 1.6955-2.0481l0.33637-0.15191c0.6426-0.29083 1.4949-0.67613 2.0671-0.95761zm45.064 0v4.4381c-0.54449 0.51287-1.4453 0.8952-2.1268 0.8952-0.76302 0-1.9722-0.59039-1.9722-2.1756 0-1.0574 0.6788-1.5833 1.6955-2.0481l0.33909-0.15463c0.64076-0.28872 1.494-0.67341 2.0644-0.95489z" fill="#2e2f2e"/>
 <path d="m108.83 37.38c0.15188-0.61856 1.3-0.93521 1.1074 0.56295-0.27782 0.14803-0.93152-0.29082-1.1074-0.56295m0.70928 1.9834c-0.21664 0.25563-0.43518 0.43727-0.66113 0.67963-0.26667 0.29083-0.37965 0.42574-0.67409 0.68522-0.50926 0.44832-1 0.85373-1.5463 1.2723-0.46853 0.3575-3.0094 2.2019-3.1371 2.5316 0.82594-0.16852 3.2501-1.6334 3.8464-2.0945 0.64077-0.4945 2.0297-1.8168 2.4427-2.5094 0.12598-0.20735 0.10001-0.22414 0.27964-0.4147 0.37224 0.18163 0.49078 0.20735 0.78151 0.49818 0.0125-0.0157 0.0294-0.0535 0.0372-0.042 0.0315 0.0472 0.42962-0.71855 0.44258-1.0167 0.0183-0.35013-0.44814-0.52232-0.85927-0.67781 0.0221-0.67409 0.29816-1.5204-0.0611-2.239-0.59075-1.1815-2.539 0.67966-2.3112 2.0445 0.0704 0.4205 0.35556 0.60927 0.5778 0.76854 0.10931 0.0799 0.24631 0.17953 0.40375 0.25932 0.0685 0.0315 0.14446 0.0536 0.22409 0.0961zm-1.1334 4.1464c-0.14997 0.0982-0.0649-0.0111-0.15554 0.18899-0.15003 0.31864-0.17223 1.4167-0.75743 1.8778-0.25927 0.20368-0.84077 0.35381-1.0463 0.0368-0.23519-0.35906 0.0483-0.96303-0.0331-1.389-0.85927 0.40946-1.3204 3.7094 0.81485 2.6408 0.26299-0.13334 0.29632-0.21471 0.50925-0.3701 0.30374-0.22205 0.35187-0.0835 0.73706-0.0835 1.9704 0 2.7594-2.9556 1.9704-3.8242-0.19629 0.14646-0.60744 0.79263-0.51856 1.0889 0.12778 0.43517 0.68892 1.0315-0.62409 1.4112-0.0926 0.0263-0.27036 0.0688-0.36111 0.0688-0.30185 6e-3 -0.24259 0.0472-0.32222-0.16273-0.18336-0.47771 0.18888-1.1501-0.21297-1.4816m36.488 2.2112c0.45928-0.44096 1.2704-2.2667 0.70373-3.0019-0.61668-0.8056-2.4075-0.33913-3.2982 6e-3 -1.813 0.70369-3.9168 2.0722-5.2594 3.0482-1.2537 0.91299-3.5112 2.6352-4.5316 3.839-1.326 1.5648-5.0965 6.602-0.89448 7.7614 3.0686 0.84631 8.4892 0.24252 11.565-0.0761 5.039-0.52022 10.113-1.0648 15.208-1.4796 2.939-0.23885 6.5465-0.37062 8.5336 1.7093 0.10556 0.10917 0.9223 0.99079 0.81483 1.1871-0.10389 0.18321-3.1704 0.41472-3.6316 0.46826-7.5002 0.8815-14.806 1.9686-22.275 2.776-3.4834 0.37795-12.336 0.90743-15.408-0.4037-1.3815-0.59078-2.6001-1.663-3.352-2.9297-0.18147-0.3055-0.56483-1.1389-0.71484-1.2797-0.27591 0.0924-0.35927 0.33912-0.46111 0.69262-0.42038 1.45-0.44632 1.8037 0.0278 2.7464 0.48521 0.96669 0.99817 2.1167 1.2778 3.2463 0.39261 1.5871 0.2537 1.7742-1.0926 2.9983l-2.563 1.9612c-1.8834 1.3-7.328 4.6742-9.5929 2.2741-0.76484-0.81109-1.4223-1.7834-1.3945-3.0612 0.56298-0.16484 1.3445-0.62406 1.876-0.89073 1.3186-0.65373 3.8686-2.2538 4.9502-3.289 0.84816-0.81299 1.8167-1.8778 1.8223-3.6501 0.01-2.0038-1.0019-2.313-2.6742-2.8001-1.4148-0.41102-2.9908-0.58521-4.2538-1.2186-0.62224-0.31287-1.3149-0.65929-0.89818-1.5741 0.67224-1.4834 2.3982-3.5649 3.6149-4.5576 2.6316-2.15 2.8575 0.13125 3.2612 0.47613 0.43706-0.12236 0.7352-0.89636 0.80373-1.4741 0.15742-1.3186-0.35372-2.8316-1.7945-2.6649-0.8315 0.0961-1.5834 0.72779-2.1815 1.1852-0.26295 0.2-0.38148 0.3428-0.60557 0.54443-1.2223 1.0908-2.0964 2.3445-2.9149 3.7687-0.52222 0.90186-1.0056 2.1352-1.2297 3.2945-0.33707 1.7667-0.20373 2.5908 0.85929 3.439 1.5167 1.2056 5.6483 1.2352 6.7317 2.2334 0.20924 0.43309-1.1426 1.2204-1.4426 1.4204-0.58889 0.38899-1.126 0.70742-1.7538 1.0833-0.76299 0.45723-2.9575 1.7168-3.8075 1.9168 0.11667-0.71672 0.61669-2.0353 0.56299-2.6242-0.55372 0.28715-0.9704 2.5482-1.1574 2.8501-0.12778 0.20369-1.1408 0.50187-1.4278 0.6037-2.9223 1.0315-7.1798 1.6519-9.1669-1.0222-3.1056-4.1779 0.64448-9.4058 0.73336-10.804-0.26668-0.0111-0.38704 0.22048-0.52965 0.43308-0.15369 0.22573-0.24629 0.37586-0.3926 0.62038-2.7371 4.6168-3.5668 13.936 3.7575 14.412 2.826 0.1853 4.415-0.74816 6.5687-1.376-0.1389 2.7482 0.71114 5.1186 2.6371 5.9557 2.4519 1.063 6.052-0.81855 7.9762-2.1093 2.013-1.3482 4.3427-3.1131 5.4224-5.3168 0.70743-1.4408 0.42967-2.0556 0.58891-3.6427 0.40558 0.16694 0.82225 0.44253 1.3019 0.64442 0.46484 0.20001 0.94633 0.37062 1.4575 0.50186 2.8871 0.74076 7.9539 0.68148 10.832 0.41314 4.6742-0.43729 9.2447-1.0371 13.873-1.6704 5.102-0.70002 10.354-1.4445 15.43-2.0593 0.84448-0.10389 0.83335-0.16483 1.2056-0.75745 1.976-3.1538-0.26458-5.7501-3.2316-6.8113-2.3556-0.84265-4.3724-0.72595-6.9576-0.53709-2.3278 0.17062-4.7427 0.43152-7.0613 0.70743-4.7057 0.56118-13.456 1.7242-17.93 0.97967-0.57224-0.0961-2.7834-0.47246-2.389-1.3667 0.28331-0.63147 3.0427-3.1186 3.9483-3.826 1.4352-1.1185 2.8001-2.1778 4.5909-3.1778 5.0983-2.8445 4.4835-0.9667 5.3335-0.74448m-91.921 14.378c-0.65187 0.11861-1.3723 0.23151-2.0667 0.10763-0.53335-0.0944-1.2908-0.55187-0.76853-1.1148 0.5963-0.6445 2.0519-0.29607 2.8353 1.0074m-42.664-6.1724-0.11111 0.89819c-0.19445 1.6167 0.40184 2.4927 1.1408 2.2668-0.18148 0.38688-0.35188 0.78516-0.49445 1.2037-0.50001 1.4723-0.77224 2.9131-0.83151 4.5742-0.11292 3.1112 0.75373 5.9095 3.7908 7.0836 3.9464 1.526 10.75-1.6482 14.093-4.0612 0.26484-0.19057 0.50373-0.32601 0.79633-0.55562 0.14257-0.11293 0.24446-0.20001 0.37034-0.30394l0.40925-0.30552c-0.13889 0.74447-0.41854 1.4704-0.57224 2.3001-0.3778 2.0575-0.61483 5.5928 1.6815 6.2724 1.6093 0.47614 3.1649-0.61114 4.2816-1.1852 0.76298-0.39423 2.963-1.9297 3.452-2.1316 0.16484 0.28138 0.32222 1.0945 0.55002 1.5223 2.1204 3.9871 6.8669 2.176 9.654 0.14646 1.7778-1.2926 4.0112-3.2575 5.3335-4.928 0.94262-1.1963 1.5649-2.8297 1.6315-4.4501 0.46668-0.25355 1.6093-0.67043 2.1834-0.91857l5.7279-2.4963c-0.59445 1.6722-1.3723 4.5149-0.82409 6.2298 0.18336 0.57042 0.56483 1.1 1.0241 1.4056 1.613 1.0759 4.0298 0.27612 5.4316-0.87593 1.0056-0.82595 1.9278-2.4094 2.4871-2.313 0.28887 0.6815-0.10556 1.6297 1.0241 2.6205 0.66298 0.57964 1.9945 0.71482 2.989 0.45355 0.93151-0.24463 1.7667-0.82595 2.3056-1.3408 1.4815-1.4149 1.0297-1.1964 1.6093-1.839 0.13708-0.15381-6e-3 -0.0368 0.17779-0.15381 0.20373 1.7889 1.076 3.3223 3.1538 2.9556 0.88151-0.15538 1.4945-0.71115 1.8908-1.2241 0.2315-0.30184 0.41854-0.59072 0.60002-0.95372 0.17035-0.33702 0.3-0.74816 0.51854-0.99447 0.42594 0.52779 0.55743 1.8927 1.913 2.5316 1.3963 0.66113 2.4204 0.0888 3.2556-0.64075 1.4389-1.2575 2.2353-4.152 2.263-6.6409 0.0389-3.3742-0.60187-10.884-0.90374-14.899-0.041-0.56113-0.1685-1.5408-0.1-2.113 0.36112 0.17219 0.57595 0.86486 1.2408 0.95374 0.0926-0.79447-0.67964-2.4834-0.96854-3.2538-0.22594-0.60374-0.95559-2.7519-1.2852-3.0538-0.30741 0.15747-0.60742 1.2241-0.73336 1.5778-0.40184 1.126-0.12403 0.86852 0.0667 1.8797 0.10181 0.53519 0.21298 3.6056 0.26484 4.4575 0.1704 2.9482 0.40925 6.102 0.6204 9.0466 0.12042 1.7 0.69816 7.6002 0.23334 8.891-0.14631 0.40736-0.86856 0.80002-1.3556 1.0074-1.1667 0.49817-2.6871 0.41839-3.2834-0.85005-0.39078-0.83147-0.0183-1.5278-0.2167-2.0111-0.47224-0.0472-0.54445 0.43886-0.77224 0.81666-0.5778 0.95374-1.2612 2.0593-2.4723 2.526-1.0797 0.41471-1.8797 0.26509-2.4297-0.44096-1.076-1.3852-0.0125-1.9242-0.29818-2.5371-0.65371 0.0704-2.0204 2.7501-4.3686 3.4446-1.0519 0.3113-2.3852 0.28873-3.2594-0.27403-1.4982-0.96852-0.38889-2.5482-0.73705-2.8426-0.59077-0.52595-2.3334 2.5964-4.6779 3.426-1.0111 0.35749-2.489 0.59452-3.5464 0.20578-2.1593-0.79262-0.41665-4.0704-0.17591-5.4687l4.1927-1.8278c0.69818-0.31287 1.5649-0.55745 1.9223-1.1167 0.25555-0.39791 1.0074-1.6408 0.97781-2.076-0.70002-0.0111-5.2131 2.1853-6.802 2.5334-2.2334 0.48716-3.6279-0.23884-5.2446-1.4334-1.0408-0.76853-2.6149-2.8334-2.739-4.2223-0.0499-0.57598 0.70742-0.88707 1.2148-1.1112 2.2056-0.97041 5.6131-1.3334 8.0317-0.97593 0.59631 0.0888 1.4482 0.3701 1.9556 0.389-0.10737-0.3407-0.21481-0.36852-0.49078-0.56485-0.57039-0.40369-1.1408-0.7889-1.8112-1.0926-1.976-0.89446-4.489-1.2278-6.5224-0.44254-4.1779 1.6112-4.7576 6.4447-1.6093 9.9225 0.33708 0.3722 1.5723 1.4334 2.2019 1.639-0.0667 0.0703-0.0315 0.0419-0.12778 0.10555-0.24814 0.15905-0.5889 0.25197-0.85929 0.36117-0.34631 0.14068-0.67595 0.27035-1.0148 0.40577-0.68891 0.27614-1.3778 0.64449-2.0908 0.74816-0.14631-0.5463-0.73335-1.363-1.0426-1.8112-3.3982-4.9409-7.3521 2.6631-4.7464 4.2743 1.3 0.80553 3.2927 0.57775 4.7909 0.26667 0.27591 1.4556 0.01 1.3797-0.70371 2.2482-0.39635 0.48137-1.076 1.1889-1.5686 1.6037l-1.7241 1.4538c-1.863 1.3704-3.9408 2.8409-6.3576 3.2224-2.076 0.32966-3.8649-0.41314-4.502-1.7815 0.0629-0.085 6e-3 -0.0367 0.13515-0.14436 0.0926-0.0797 0.0278-0.021 0.12042-0.085l2.9908-2.139c1.1815-0.90369 1.9223-1.5556 2.2371-3.2982 0.19076-1.0649 0.17591-2.2723-0.21855-3.2353-0.37408-0.91485-1.05-1.3538-1.913-1.7982-0.80374-0.41103-1.6593-0.81115-2.4927-1.226-1.0371-0.51287-3.9075-2.0149-4.4316-2.9186 0.53335-0.0111 1.2463 0.10764 1.5723-0.21103-0.10181-0.5113-1.5056-1.0334-1.9852-1.2723-0.37408-0.18532-0.73705-0.34647-1.1093-0.51656-0.19443-0.0888-0.35187-0.17796-0.54261-0.27036-0.70927-0.34803-0.54817 0.30186-0.54817 0.84265 4e-3 2.0278-0.13709 1.4037 0.78151 2.1686 0.40741 0.34069 0.59261 0.68705 0.89818 1.0611 0.60557 0.73519 1.276 1.3778 2.0408 1.9427 0.18704 0.13862 0.3778 0.26668 0.59076 0.42417 0.16668 0.12236 0.37781 0.27244 0.56669 0.37586 0.84631 0.463 1.6778 0.87776 2.5908 1.3296 0.66853 0.33176 4.539 1.939 3.4334 3.0742-0.41665 0.42573-4.4983 3.3112-5.189 3.6093 0-1.8185 0.93152-3.7742 0.94448-5.0335-0.25555 0.0761-0.27592 0.27245-0.40185 0.56485-0.0851 0.19842-0.16112 0.40158-0.24631 0.62967-0.1611 0.42574-0.30001 0.87776-0.42778 1.3278-0.29077 1.0074-0.41854 1.9204-0.53706 2.9871-0.27964 0.115-0.69817 0.43308-0.99447 0.61114-1.0093 0.60742-2.0352 1.2667-3.1186 1.7426-1.4464 0.63892-3.6631 1.6093-4.5483-0.32388-0.36667-0.80371-0.21297-1.9593-0.0685-2.8038 0.0796-0.47246 0.45554-2.3223 0.62778-2.6149 0.0907-0.15748 0.24075-0.24252 0.39446-0.41471 0.11486-0.12972 0.24257-0.28348 0.35004-0.45723 0.65002-1.0463 1.0389-2.6223 0.48704-3.8038-0.75002-1.613-4.9798-1.7-6.9465-2.776-1.0093-0.55372-0.8704-1.0723-0.33334-2.0353 0.76298-1.3741 1.7408-2.5982 2.8945-3.589 0.17222-0.14803 0.22777-0.2462 0.42777-0.38322 0.1852-0.12237 0.28889-0.2021 0.47225-0.33544 0.28521-0.20945 0.68336-0.43308 1.1093-0.52022 1.2834-0.26458 1.2704 1.0686 1.6612 1.3389 0.43891-0.1428 0.73891-0.89263 0.81113-1.4834 0.0851-0.71486 0.0111-1.4279-0.33149-1.9315-1.9816-2.9019-7.6632 3.7927-8.428 8.2298-0.28887 1.6816-0.13514 2.5279 0.92967 3.3168 1.4223 1.0519 6.6928 1.4649 6.7187 2.3464-0.26668 0.84076-4.8761 3.3241-6.1594 3.9205-2.2334 1.0334-5.0316 2.1334-7.9021 2.0649-2.9575-0.0725-4.9057-1.9279-5.3076-4.6594-0.52222-3.539 1.6704-6.6465 1.8704-7.9799 0.11862-0.36693 0.22967-0.77782 0.32222-1.2427-0.32411 0.22048-0.27963 0.2798-0.5741 0.73153-0.20367 0.31496-0.34073 0.59078-0.67038 0.67781-1.0037 0.26825-0.89634-1.2778-0.79633-2.0982 0.23707-1.9519 1.3352-3.7872 1.7852-5.5094l-0.43518 0.55557c-0.89448 1.5389-1.9667 4.0705-2.1852 5.8798m184.76 10.443c-1.8686 0-3.263-0.0368-4.9316-1.0241-0.70926-0.42049-1.9945-1.5464-1.9945-2.7723 0-2.7594 1.2093-3.8538 1.1019-4.9094-0.43151 0.15749-1.026 1.5908-1.237 2.1705-0.5113 1.3963-0.5556 2.2741-0.5556 3.6853 0 3.3686 2.7279 5.6409 6.1335 5.6409h0.94449c3.6094 0 7.4076-2.213 10.165-3.9186 0.58888-0.36484 1.0704-0.84261 1.5926-1.2426 1.7982-1.3797 1.8334-3.0557 2.1648-3.5224 0.21102 2.3075 0.22783 6.9447 3.7057 6.9447 0.87598 0 1.4797-0.0263 2.2575-0.63152 0.52594-0.41102 0.76853-0.66478 1.1463-1.2185 0.35538-0.52391 1.5019-2.589 1.7963-2.839 0.56669 0.52963 0.34806 2.263 3.3408 3.7946 3.715 1.9 9.0892 1.3241 12.963 0.12389 1.1167-0.34646 2.8334-0.98154 3.9038-1.4964 0.35907-0.17428 0.90749-0.57037 1.2463-0.53151 0.18531 1.0241 0.20211 1.3667 0.83708 1.9982 0.60559 0.60374 1.4426 0.74633 2.4278 0.74633 1.476 0 2.6834-1.5908 3.1482-2.6593 1.4519-3.339 1.0482-6.4687 0.813-10.035l-0.53335-7.4946c-0.0814-1.1241-0.35172-3.1279-0.24463-4.165 0.22416 0.12389 1.2556 1.55 1.2556 0.65556 0-0.49974-1.9297-5.6928-2.2779-6.0132-0.27403 0.15539-0.87227 1.8575-0.92964 2.2501-0.0525 0.35015 0.21313 0.87783 0.28348 1.3093 0.0799 0.47614 0.0997 0.98524 0.10764 1.5093 0.0367 2.9038 0.54264 8.9151 0.78705 12.034 0.0799 1.0074 0.14069 1.9722 0.20579 2.9649 0.12236 1.8075 0.18531 2.5279 0.18531 4.3094 0 1.0204-0.12015 1.4297-0.79079 1.876-1.113 0.74263-3.1112 1.1167-3.8946 0.0111-0.463-0.65188-0.0111-1.4852-0.16692-2.126-0.30553 6e-3 -2.139 0.87595-2.6001 1.0593-2.9668 1.1852-5.9076 1.9278-9.1929 2.0741-2.1574 0.0982-4.9483 0.0725-6.6872-0.80002-1.2797-0.6426-2.5668-1.3334-2.9778-2.6278-0.15906-0.50553-0.11125-1.2408-0.28873-1.6-0.45198-0.0908-0.53701 0.23675-0.73146 0.50342-1.6519 2.2427-2.389 4.252-5.1872 4.252-2.4575 0-2.4501-3.226-2.5853-5.3816-0.16117-2.5204-0.15906-5.1113-0.29083-7.6725-0.12597-2.5223-0.22416-4.9316-0.58521-7.3687-0.25355-1.7186-0.82407-5.2557-1.4426-6.5836-0.3239 0.12973-0.32968 0.42417-0.43519 0.95374-0.38689 1.9353-0.31497 1.6723-6e-3 3.5983 0.90187 5.6687 1.063 9.4484 1.15 15.31 0.0315 2.0797-0.30919 2.5445-1.576 3.8853-0.58338 0.61672-2.5649 1.8704-3.2279 2.2427-2.0353 1.1334-5.4965 2.7315-8.291 2.7315m-12.789-5.3076c0.55739-0.0961 1.1593-0.17796 1.6963-0.021 0.44989 0.13125 0.89634 0.37586 0.85372 0.88522-0.4798 0.40369-1.8667 0.2147-2.55-0.86301m-2.5631-1.8037c-0.62595 0.61666-4.4242 2.4204-5.8613 1.3648-0.56485-0.4168-0.58889-1.1667-1.0741-1.5908-0.33177 0.25354-0.54075 1.3334-0.67966 1.8426-0.21838 0.80376 0.26458 1.3575 0.52391 1.9889 0.29606 0.71855 1.2389 3.4613 0.90002 4.2354-0.0667 0.15172-0.45723 0.61299-0.56116 0.71855l-2.1648 1.8223c-2.0204 1.5408-4.2279 3.076-6.7391 3.7964-1.7852 0.51129-2.9594 0.3979-4.0538-0.6574-0.90002-0.86859-1.4352-2.2649-1.2334-3.9501 0.17429-1.4741 0.89629-3.8409 0.90003-4.3853-0.26879 0.0871-0.31287 0.3239-0.50028 0.79635-0.92412 2.3075-1.5649 5.6094-0.81483 7.9706 2.1241 6.6928 10.126 1.3186 13.369-1.5648 2.4408-2.1723 2.6352-4.4502 2.6686-7.9966 1.1482 0.23729 2.3538-0.16272 3.302-0.54631 1.0982-0.4462 2.0834-1.1093 2.6501-1.3352 0.76853 2.2964 4.702 4.9983 5.789 1.3296 0.45723-1.5426 0.0368-3.3353-0.79814-4.2334-0.77224-0.82964-1.9371-0.77038-3.1334-0.50921-0.37585 0.0835-0.73335 0.24831-1.0482 0.30763-0.95929-1.4464-1.6426-13.587-1.6426-16.182 0.27403 0.0961 0.13695 0.021 0.33545 0.25565 0.0888 0.10763 0.15381 0.19056 0.2462 0.2924 0.16693 0.17796 0.35906 0.40369 0.65554 0.41314 0.22784-0.60559-1.5222-4.8205-1.9963-5.9594-0.0997-0.23728-0.0667-0.20158-0.23151-0.32757-0.31864 0.19265-0.90369 1.9945-0.93702 2.2631-0.0419 0.33125 0.20577 0.8574 0.27978 1.2518 0.085 0.46091 0.10389 0.99079 0.11292 1.5 0.0682 4.1798 0.49452 10.293 1.1945 14.423 0.12959 0.76297 0.30762 2.0056 0.54259 2.6668m70.332 4.8001c0 1.3-0.23308 2.9167-0.14803 3.8427 0.44095-0.23518 0.95745-2.063 1.1167-2.739 0.70002-2.963 0.35015-5.552 0.13912-8.5484l-0.64076-8.9595c-0.0572-0.79819-0.33702-4.0131-0.28871-4.5501 0.35381 0.13125 1.2816 1.5037 1.2816 0.76854 0-0.64076-0.77598-2.4871-1.0204-3.1427-0.21313-0.57593-0.94817-2.7408-1.2518-2.9797-0.30027 0.19791-1.0315 2.0686-0.92597 2.5871 0.10764 0.51866 0.29239 0.81111 0.34646 1.4722 0.0472 0.57414 0.0368 1.1797 0.074 1.763 0.13334 2.3075 0.29818 4.5501 0.43887 6.8483 0.13542 2.2352 0.32389 4.5039 0.47036 6.7502 0.11653 1.7612 0.40945 5.3094 0.40945 6.8872m-151.41-24.146c0 0.15013 0.27225 0.89078 0.32411 1.2148l0.26294 4.5242c0.12403 2.0167 0.26852 4.0057 0.40741 6.0076 0.13891 1.9963 0.28337 3.9983 0.41665 6.0113 0.12779 1.9741 0.41482 4.7538 0.35556 6.6835-0.0294 0.99078-0.20925 2.3297-0.16483 3.2575 0.26111-0.10556 0.2778-0.22415 0.43518-0.60002 1.5704-3.7168 1.0889-6.8798 0.83521-10.758l-0.64261-8.9206c-0.0629-0.86852-0.38337-3.8742-0.26852-4.502 0.38149 0.12235 0.64633 0.94816 1.2575 0.9389 0.0331-0.88337-1.15-3.7224-1.5871-4.8261-0.17408-0.44096-0.40925-1.2686-0.69818-1.4611-0.25553 0.20367-0.93336 1.9612-0.93336 2.4297m92.938 19.825c0 1.3797-0.21681 3.3389-0.15171 4.1168 0.85189-0.4016 1.5334-4.6464 1.5334-5.9391l-0.97593-15.269c0.48715 0.18897 0.72778 0.93708 1.2667 0.93519 0.20367-0.53892-1.2-3.8982-1.5371-4.789-0.14804-0.38897-0.43309-1.3204-0.68889-1.513-0.32599 0.20945-0.81299 1.6426-0.9204 2.1686-0.0944 0.46668 0.1554 0.79079 0.2483 1.2519 0.0871 0.44621 0.115 0.92964 0.12389 1.4167 0.0593 3.2297 0.51131 8.2928 0.74628 11.68 0.13181 1.8852 0.35538 4.0576 0.35538 5.941m-45.087-7.8706c0.34815-0.12597 0.9593-0.53707 1.3204-0.75372 0.41314-0.24988 0.86854-0.4924 1.2926-0.73709 2.9501-1.6926 10.591-5.6927 13.334-6.9206 1.3575-0.60743 2.7464-1.3297 4.1464-1.9352 0.40579-0.17429 0.35015-0.11862 0.42783-0.58521 0.0525-0.30919 0.11862-0.59445 0.13912-0.92223-0.81483 0.17429-9.654 4.5576-10.993 5.265-1.9408 1.0204-7.5298 3.9686-9.1244 5.0557-0.32778 0.22416-0.45928 1.0334-0.5426 1.5334m77.525 9.5021 4.0983-2.2927c0.68523-0.36694 1.3797-0.72221 2.0686-1.1037 0.58338-0.3239 1.4964-0.83152 2.1056-1.0685-0.63336 1.4278-1.263 2.4778-1.2074 4.389 0.0557 1.9371 1.8242 1.826 2.1186-0.84816-0.32758 0.10764-0.6593 1.4334-1.326 0.78518-0.68705-0.66854 0.16274-3.0852 0.42941-3.9094 0.21104-0.65373-0.0315-0.44464 1.3593-1.1389 0.61299-0.30553 6.1039-3.0334 6.6854-3.1723l0.19424-1.1111c-0.4798 0.1239-3.7872 1.7167-4.4612 2.0445-3.5742 1.7427-6.1502 3.1316-9.5818 5.0039-0.34279 0.18688-0.69262 0.42206-1.0222 0.59817-0.93153 0.4945-1.2723 0.5426-1.4612 1.8241m-25.253-2.35c-0.28715 0.52594-1.4038 0.94816-2.0094 1.2519-0.28505 0.1407-2.0723 0.86854-2.1334 1.2019 0.89819 0.16272 2.2204-0.21838 3.0631-0.40736 0.99814-0.22206 1.1518-0.47036 1.9111-1.6667 2.2538-3.5446-1.0537-2.1149-2.3686-3.0779-0.021-0.54075 0.7315-1.1426 1.1501-1.3908 0.60002-0.35539 0.41312 0.22049 0.81481 0.23885 0.30921 0.0157 0.54076-0.40945 0.64816-0.66111 0.90003-2.1334-0.64259-2.9649-2.9871 0.52778-0.59636 0.89079-1.6204 2.9649-0.28505 3.6131 0.72595 0.35171 1.6204 0.14068 2.1964 0.3706m29.379-16.042c-0.13126-0.26299-0.17587-0.72227-0.26878-1.0297-0.26457-0.88334-0.8204-2.0778-1.9223-2.0778-0.25565 0.45932-1.0112 1.15 0.0315 1.7556 0.47034 0.27245 0.44462-6e-3 0.7556-0.0593 0.34437 0.25566 1.0518 2.139 1.1723 2.8112-0.0111 0.0111-0.0315 0.0111-0.0368 0.0315-6e-3 0.021-0.0263 0.0263-0.0315 0.0315-0.27402 0.22783-0.34804 0.30184-0.48872 0.74633-0.0961 0.30919-0.22993 0.80743-0.11126 1.0685 0.0799-0.0945 0.41682-0.51497 0.49241-0.56479 0.14279-0.0924 0.23885-0.0982 0.41472-0.0315 0.0703 0.0263 0.0944 0.0368 0.16115 0.0888 0.13912 0.10556 0.0688 0.0367 0.15172 0.16641-0.39425 0.24252-1.2148 0.26877-1.4834 1.2963-0.19266 0.72412 0.0724 1.6946 0.21837 2.4112 0.16115 0.78522 0.3113 1.5371 0.42416 2.339 0.0667 0.46458 0.12598 2.4371 0.21313 2.6242 0.41839-0.59634 0.25722-2.7853 0.15381-3.602-0.14278-1.1-0.40369-2.2426-0.74259-3.226 0.34804-0.49975 1.4074-0.72039 2.0371-0.88333 0.37954-0.0997 0.35172-0.1275 0.50553-0.47771 0.29083-0.65188 0.14437-0.91855-0.28505-1.2871-0.73702-0.63704-1.0352-0.62406-1.2592-0.79074 0.43728-1.3612 0.35014-1.4205 0.65-2.5631 0.55744-2.1242 1.0334-0.8889 1.4408-0.72223 0.87782-0.56484-0.33544-2.6594-1.2241-1.2112-0.70748 1.1575-0.66486 2.7038-0.96859 3.1575m-27.884-2.3761c1.3426-0.90186 1.113 0.66485 1.0019 0.88339-0.24095-0.074-0.40369-0.16851-0.60185-0.28349-0.2462-0.14068-0.40947-0.20577-0.40001-0.60001m0.52778 2.1686c-0.16851 0.20209-0.46668 0.48871-0.67965 0.68332-0.97783 0.89818-2.8871 2.1204-4.0631 2.8834-0.42417 0.27403-1.4445 0.84632-1.6112 1.1871 0.46457-0.0687 1.5852-0.59451 2.0408-0.79262 0.71298-0.30762 1.2982-0.59078 1.8889-0.98896 2.4631-1.6704 2.2945-2.1259 2.9631-2.7464l0.57224 0.30553c0.0646 0.78705-0.96302 2.6242-0.51864 4.1112 0.45932 1.5426 2.0056 0.53152 1.963-1.5056-0.263 0.27245-0.57965 1.3538-1.2296 0.91857-0.80187-0.54075-0.0111-2.9149 0.24252-3.6408 0.38899-1.1148-0.14068-1.0556-0.51655-1.4723 1.2111-5.3224-3.8483-1.0667-1.8741 0.52778 0.35539 0.28873 0.59256 0.30028 0.82222 0.52969m-95.12 33.501c0.28888-0.29082 1-1.5778 1.0111-2.1797-0.33334-0.26142-1.7964-1.426-2.3297-1.4612l-0.79076 1.5649c-0.21853-0.0997-0.27223-0.21103-0.5463-0.40735-0.37225-0.26301-1.3352-0.97038-1.6908-1.0074-0.14815 0.17219-0.95003 1.7797-1.013 2.0815 0.10181 0.11653 2.0464 1.5186 2.3334 1.5593 0.10917-0.21313 0.71484-1.4316 0.85002-1.5686 0.57965 0.2777 1.7964 1.313 2.176 1.4186m77.265-5.7947c0.57035-0.63885 1.3019 0.0157 1.2537 0.72412-0.39267-0.0315-1.1167-0.49817-1.2537-0.72412m-10.66 6.2965c0.4315 0.0761 2.5408-0.48715 3.089-0.62223 1.3575-0.33176 1.7445-0.3832 2.8871-1.026 1.5852-0.89262 3.0075-1.9001 3.6797-3.615 0.021-0.0608 0.0472-0.13334 0.0776-0.19264 0.0725-0.1428 0.0315-0.0776 0.10028-0.15172 0.17954 0.21314 1.6352 1.4908 2.2056 0.97037 0.30919-0.28137 0.70557-1.6908 0.0629-2.5778-0.98891-1.3649-1.7445 0.38164-1.8704 0.48348-0.33546 0.26877-0.0157-0.47245-0.75005 0.82223-0.21472 0.37586-0.41839 0.83893-0.6574 1.0982-2.202 2.3834-8.054 4.1946-8.8244 4.8113m-149.48-0.50395c0.28149-0.29083 1.0037-1.5852 1.0112-2.176-0.41299-0.32757-1.8334-1.4426-2.3316-1.4649-0.1685 0.35013-0.65928 1.2352-0.74076 1.5834-0.45555-0.1832-1.6241-1.3556-2.2834-1.4334-0.15371 0.17218-0.95189 1.7815-1.013 2.0834 0.0722 0.085 2.1075 1.513 2.3334 1.5593 0.10737-0.21838 0.70559-1.4297 0.85003-1.5686 0.58892 0.29239 1.8112 1.3241 2.1741 1.4167m35.544-3.8279c-0.0629 0.14803-2.0241 2.8223-0.28521 3.4298 0.61854 0.2147 1.6149 0.0315 2.1908-0.17219 0.53704-0.18688 1.3445-0.67598 1.5352-1.0463-0.66484 0.0725-1.2964 0.32756-2.0704 0.41104-3.0094 0.31864-1.8389-1.2611-0.57039-2.5167 0.62779-0.62039 1.5-0.87593 1.3538-2.0334-0.44631 0.17585-0.95003 1.2797-1.8927 0.87965-0.88705-0.37429-0.076-1.0611 0.17408-1.0834 0.28888-0.0263 0.31298 0.15906 0.43334 0.31498 0.53151-0.37219 0.56299-1.0908 0.20741-1.2186-0.55186-0.20001-1.8186 1.2593-1.9223 1.9426-0.0944 0.63708 0.33892 0.9741 0.84632 1.0926m23.897-28.014c0.0778-0.37219 0.48889-0.59261 0.88891-0.51287 0.17963 0.34278 0.24815 0.60375 0.24258 1.0852-0.37223 0.0315-0.97225-0.33334-1.1315-0.57224m0.77594 1.9704-1.3019 1.3982c-1.0574 1.0816-3.4686 2.839-4.5631 3.8464 0.14448 0.0945-0.12223 0.12015 0.25187 0.0368l0.70557-0.37586c1.0297-0.58521 1.8149-0.95373 2.7427-1.713 0.87781-0.72038 2.3853-2.1908 2.613-3.0631 0.47409 0.0263 0.67038 0.32966 0.99262 0.44988 0.0907-0.35907 0.39445-0.79629 0.33519-1.2315-0.26112-0.2315-0.59262-0.31655-0.87225-0.54998 0.0667-0.65562 0.23517-1.5704-0.15187-2.226-0.76299-1.2945-3.439 1.8779-1.6426 2.9482 0.39077 0.23361 0.66853 0.22573 0.89077 0.47771m-25.666-6.1742c0.15186-0.61855 1.3019-0.93525 1.1074 0.56296-0.2778 0.14803-0.93151-0.28873-1.1074-0.56296m0.70927 1.9834c-0.21665 0.25565-0.43335 0.43729-0.65927 0.68149-0.26852 0.28872-0.37965 0.42417-0.67595 0.68339-0.50742 0.4483-1 0.85372-1.5463 1.2723-0.46853 0.35905-3.0075 2.2019-3.1353 2.5315 0.82411-0.16693 3.2482-1.6315 3.8446-2.0926 0.64077-0.49607 2.0297-1.8186 2.4445-2.5112 0.12403-0.20735 0.0982-0.22416 0.27781-0.41471 0.37224 0.18164 0.49262 0.20736 0.78151 0.49607 0.0147-0.0111 0.0294-0.0525 0.0372-0.0419 0.033 0.0419 0.43151-0.7204 0.44632-1.0186 0.0147-0.35014-0.45188-0.52232-0.86114-0.67776 0.0204-0.67414 0.29627-1.5205-0.0611-2.239-0.5926-1.1815-2.5408 0.67966-2.313 2.0445 0.0722 0.42048 0.35555 0.60931 0.57779 0.76858 0.11112 0.0797 0.2463 0.17953 0.40374 0.25932 0.0685 0.0315 0.14446 0.0535 0.2241 0.0961zm22.088 29.471c-1e-3 -0.0111-1e-3 -0.0315-1e-3 -0.0419l0.0147-0.1239c0.0483-0.20578 0.11667-0.15906 0.12959-0.52022-0.40001 0.0761-0.62966 0.6889-0.963 0.95374-0.51114 0.40577-1.0315 6e-3 -1.5334-0.0944-1.4278-0.28504-2.7316 1.0259-3.5816 1.8593-2.1408 2.1038-2.5797 1.8389-3.1038 2.2612-0.0907 0.074-0.0294 0.0157-0.10556 0.10556 1.9778-0.1554 2.7334-1.5371 4.0223-2.4389 1.8686-1.3056 2.6056-0.49818 3.3242-0.48506 0.6926 0.0111 1.2871-0.60931 1.4315-0.58893 0.18337 0.0263 0.45745 0.26667 0.81485 0.27244 0.86854 0.0111 1.2056-1.6686 0.82224-2.15-0.59446 0.25565-0.37408 1.0093-0.38148 1.1426-0.30369 0.0157-0.66669-0.0263-0.88892-0.15013m53.474-29.205c-0.21298-0.46092-0.52222-3.4241-2.4019-3.4186-0.16851 0.30762-0.76114 1.0186-0.52221 1.3852 0.90187 1.3852 1.1797-0.0472 1.6371 0.80002l0.53151 1.226c0.24631 0.6389 0.47225 1.7296 0.55186 1.8315 0.62966-0.33544 0.77595-2.102 0.96485-2.9075 0.63891-2.7316 1.1889-1.2019 1.6686-1.0686 0.68522-0.53518 0.12042-2.0556-0.78149-1.8296-0.85558 0.2147-1.2426 2.239-1.4093 3.0482-0.0629 0.30184-0.10181 0.73891-0.23891 0.93336m16.602 30.897c-0.26143-0.77415-0.61672-3.4501-2.3667-3.439-0.16851 0.263-0.77782 0.99814-0.55559 1.376 0.61485 1.0593 1.3315 0.48716 1.3815 0.49817 0.30396 0.0725 0.95184 1.8963 1.0889 2.3686 0.0944 0.32389 0.13334 0.78338 0.21838 0.99635 0.8722-0.13125 0.77776-3.8871 1.7296-4.5038 0.61483-0.0368 0.50921 0.33123 0.87967 0.53518 1.0112-0.39266-0.19791-2.9501-1.2852-1.3389-0.56853 0.84081-0.86669 3.2316-1.0907 3.5076m-119.17 5.3112c0.34447-0.085 3.2834-1.7186 3.9112-2.0426l3.0075-1.5148c0.1778-0.19265 0.24631-0.9593 0.19632-1.2519-0.41297 0.13125-3.4779 1.6908-3.9908 1.9779-0.64816 0.36483-1.3315 0.71109-1.9945 1.0463-0.21481 0.10764-0.82409 0.43519-0.91669 0.56857-0.14257 0.21104-0.24258 0.93704-0.21296 1.2167m91.377-2.9668c0.40925-0.12597 1.5426-0.77035 1.976-1.0148l4.9427-2.5538c0.17963-0.19843 0.24074-0.95006 0.19817-1.2463l-3.9927 1.9778c-0.6704 0.37586-1.3297 0.71109-1.9945 1.0444-0.20741 0.10556-0.83149 0.44464-0.91854 0.56669-0.14446 0.20211-0.24258 0.95562-0.21113 1.226m-101.32-30.623c-0.14814 0.0982-0.0629-0.0111-0.15554 0.19054-0.14815 0.31498-0.17223 1.4148-0.75558 1.876-0.26111 0.20577-0.84261 0.35381-1.05 0.0367-0.23334-0.36273 0.0519-0.9648-0.0294-1.3889-0.86113 0.40736-1.3204 3.7075 0.81299 2.639 0.26484-0.13334 0.29628-0.2147 0.51115-0.37061 0.30373-0.22416 0.35004-0.0835 0.7352-0.0835 1.9704 0 2.7594-2.9538 1.9704-3.8242-0.19634 0.14647-0.60744 0.79447-0.51855 1.0908 0.12959 0.43308 0.68705 1.0296-0.6241 1.4112-0.0926 0.0263-0.26851 0.0667-0.363 0.0682-0.29817 6e-3 -0.24074 0.0472-0.32037-0.16274-0.18147-0.4798 0.19076-1.15-0.21298-1.4834m62.646 8.2502c-0.21854 0.17428-0.31114 0.29818-0.63336 0.43729-1.376 0.59445-0.7352-0.62963-1.0241-1.5-0.25186 0.0646-0.19076-0.1554-0.37965 0.70742-0.0629 0.29082-0.12958 0.57964-0.23706 0.83892-0.1778 0.42573-0.7278 0.95745-1.3223 0.66296-0.40558-0.31497-0.0907-0.95183-0.12959-1.4926-0.36851 0.13542-1.0834 1.539-0.57594 2.4593 0.60001 1.0926 1.8834-0.34804 2.2297-0.32967 0.62038 0.0368 0.91854 0.0908 1.3908-0.25198 1.3463-0.97593 1.5686-2.9445 0.94632-3.5057l-0.15187 0.18321c-0.0519 0.0776-0.0815 0.14278-0.12403 0.21313-0.0462 0.0835-0.20924 0.35382-0.23149 0.44621-0.041 0.18163 0.22594 0.6574 0.24257 1.1315m132.66-5.915c-0.15171 0.19266-1.1593 0.91298-1.6871 0.65928-0.51656-0.2483 0.0472-1.5982 0.27244-1.8519 0.46301 0.17795 1.3222 0.76484 1.4148 1.1926m-2.3816 0.72412c0 0.75739 0.0982 1.2074 0.9667 1.2074 1.4111 0 1.8223-1.2519 1.8223-2.4889 0-0.97416-1.0815-1.6612-1.3278-1.9593 0.12597-0.37219 0.49818-1.126 0.50394-1.476-0.53146-0.11653-0.60185 0.34804-0.80369 0.79262-0.18899 0.41681-0.33177 0.73519-0.50762 1.1797-0.22783 0.57598-0.65373 2.1112-0.65373 2.7446m-40.227 3.6871c-0.2462 0.49976-1.3334 0.92964-1.6871 0.73336-0.44096-0.2462 0.0315-1.5334 0.26299-1.8464 0.53335 0.21471 1.1871 0.65189 1.4241 1.113m-2.3741 0.80926c0 1.9593 1.8538 1.0982 2.3167 0.55188 0.41104-0.48872 0.47403-1.1 0.47403-1.8334 0-0.77781-0.91856-1.6704-1.3296-1.8667 0.042-0.29449 0.16641-0.59077 0.27612-0.85929 0.0535-0.1275 0.12959-0.27034 0.16851-0.3853 0.0667-0.19266 0.13911-0.26668-0.0368-0.35382-0.64075-0.31865-1.8686 3.7797-1.8686 4.7464m63.376 17.758c0.25565 0.21313 2.1315 1.4963 2.2815 1.5408 0.26458-0.33334 1.0833-1.6149 0.98522-2.1908-0.0419-0.0997-1.8074-1.4148-2.3075-1.4593-0.14278 0.2462-0.93891 1.8575-0.95929 2.1094m-113.24-16.448c0.3852 0.30762 0.73891 0.49241 1.1186 0.76486 0.2926 0.20945 0.83705 0.64632 1.1037 0.76113 0.2778-0.22049 1.3186-1.8426 0.94448-2.263-0.0963-0.10917-0.32962-0.2483-0.50002-0.37954-0.31853-0.24988-1.2815-0.95929-1.6612-0.98896-0.20184 0.21104-1.0019 1.7705-1.0056 2.1056m92.305 2.9408 2.2686 1.5649c0.31865-0.26879 1.037-1.5797 1.0278-2.2001-0.40579-0.26667-1.7223-1.3278-2.2426-1.4352-0.22206 0.22416-0.96858 1.6945-1.0537 2.0704m-171.02-9.5763c-0.46296 0.24988-0.37963 1.0204-1.0574 0.9426-1.3093-0.14647 0.17039-4.0927 0.30924-4.6279-0.77964 0.73336-1.8963 4.3538-1.1352 5.5317 0.17223 0.26509 0.6426 0.4315 1.0056 0.19632 0.49262-0.32389 0.75558-1.2833 0.87781-2.0426" fill="#2e2f2e"/>
 <g fill="#005740">
  <path d="m124.01 80.24-0.55341 0.10583-2.7155 6.7955c-0.45001 1.124-0.65792 1.2334-1.4839 1.3374v0.44489h3.1576v-0.44489c-1.0462-0.10375-1.3141-0.20834-1.0363-1.0417 0.14815-0.44998 0.33704-0.95383 0.50187-1.4242h2.6476c0.22412 0.62778 0.44963 1.2434 0.59411 1.6765 0.18333 0.53881 0.14703 0.67655-0.68633 0.78941v0.44489h3.5944v-0.44489c-0.87781-0.10375-0.99292-0.19996-1.454-1.3889-0.84076-2.2111-1.7348-4.5885-2.5662-6.8497zm20.47 0-0.55611 0.10583-2.7128 6.7955c-0.44816 1.124-0.65707 1.2334-1.4812 1.3374v0.44489h3.1576v-0.44489c-1.0481-0.10375-1.3168-0.20834-1.039-1.0417 0.15003-0.44998 0.3379-0.95383 0.50457-1.4242h2.6449c0.22407 0.62778 0.45234 1.2434 0.59681 1.6765 0.18334 0.53881 0.14617 0.67655-0.68904 0.78941v0.44489h3.5971v-0.44489c-0.87782-0.10375-0.99747-0.19996-1.4568-1.3889-0.84076-2.2111-1.7348-4.5885-2.5663-6.8497zm-28.289 3e-3c-1.8226 0.0332-2.8267 1.1084-2.8267 2.39 0 1.3093 0.84876 1.9512 2.2136 2.6883 1.1167 0.60187 1.6087 1.0309 1.6087 1.8772 0 0.84076-0.51363 1.3943-1.3618 1.3943-1.3093 0-1.9869-1.323-2.2462-2.1675l-0.47474 0.1139c0.0926 0.64631 0.29004 1.8409 0.37708 2.1648 0.58706 0.19056 1.3082 0.41505 2.1268 0.41505 1.8056 0 3.0573-1.0973 3.0573-2.5826 0-1.2759-0.81671-1.926-2.276-2.6612-1.1259-0.56857-1.6439-1.0098-1.6439-1.7931 0-0.71483 0.44853-1.3211 1.2967-1.3211 1.213 0 1.5775 0.91425 1.8257 1.7606l0.4666-0.10306c-0.10556-0.83152-0.18405-1.4571-0.23601-1.9369-0.28149-0.0431-0.97493-0.23873-1.8176-0.23873-0.0293 0-0.0606-5.3e-4 -0.0896 0zm12.424 0.18176v0.43947c1.1334 0.1075 1.2382 0.41437 1.1936 1.0607-0.31299 4.4742-0.35124 5.1229-0.41235 5.5801-0.10375 0.75761-0.43544 0.90625-1.1855 0.97659v0.44218h3.1929v-0.44218c-0.95006-0.0926-1.2348-0.2482-1.2479-0.96302 0-0.39262 4e-3 -1.2825 0.19531-5.553 0.95744 2.3168 2.0786 5.1544 2.786 6.9582h0.39877c0.77225-1.8482 2.0485-4.7713 3.0356-7.0694l3e-3 5.1786c4e-3 1.2556-0.0511 1.3431-1.0715 1.4486v0.44218h3.8006v-0.44218c-1.0908-0.13528-1.1408-0.19298-1.1665-1.4486l-0.0868-4.9426c-0.0278-1.0002 0.10236-1.1096 1.1746-1.2262v-0.43947h-2.5934l-2.7318 6.0684-2.6531-6.0684zm-5.3848 1.9966 1.0688 2.9732h-2.2055c0.34816-0.9815 0.74403-1.9676 1.1366-2.9732zm20.473 0 1.0688 2.9732h-2.2082c0.35001-0.9815 0.74491-1.9676 1.1394-2.9732z"/>
  <path d="m109.66 85.17h-99.653v-0.97593h99.653z"/>
  <path d="m251.04 85.17h-99.653v-0.97593h99.653z"/>
  <path d="m327.75 12.75c-8.4021 0-16.554 1.6475-24.23 4.8938-7.4132 3.1334-14.067 7.6218-19.784 13.339-5.715 5.7169-10.206 12.375-13.341 19.784-3.2464 7.6761-4.8911 15.828-4.8911 24.23 0 8.404 1.6447 16.556 4.8911 24.23 3.1353 7.4132 7.6264 14.07 13.341 19.787 5.7168 5.715 12.371 10.206 19.784 13.341 7.6761 3.2464 15.828 4.8911 24.23 4.8911 8.4021 0 16.554-1.6447 24.23-4.8911 7.4132-3.1353 14.072-7.6264 19.787-13.341 5.715-5.7169 10.204-12.374 13.341-19.787 3.2464-7.6743 4.8911-15.826 4.8911-24.23 0-8.4021-1.6447-16.554-4.8911-24.23-3.1371-7.4095-7.6264-14.067-13.341-19.784-5.715-5.7168-12.374-10.205-19.787-13.339-7.6761-3.2464-15.828-4.8938-24.23-4.8938zm0 1.5625c2.0426 0 4.0587 0.10417 6.0494 0.29841-0.39423 2.9872-2.9568 5.3007-6.0494 5.3007s-5.6541-2.3136-6.0467-5.3007c1.9889-0.19423 4.0059-0.29841 6.0467-0.29841zm-7.6174 0.47474c0.33701 2.6649 2.0402 4.9008 4.3865 5.9898-2.626 1.2205-4.4489 3.882-4.4489 6.9691s1.8229 5.7441 4.4489 6.9664c-2.626 1.2204-4.4489 3.8811-4.4489 6.9663 0 0.0315 3e-3 0.0581 3e-3 0.0896-15.134 3.4834-26.42 17.037-26.42 33.229 0 18.832 15.265 34.102 34.097 34.102s34.099-15.27 34.099-34.102c0-16.191-11.284-29.745-26.42-33.229v-0.0896c0-3.0852-1.8184-5.7459-4.4462-6.9663 2.6278-1.2223 4.4462-3.8792 4.4462-6.9664 0-3.0871-1.8184-5.7486-4.4462-6.9691 2.3464-1.0889 4.0468-3.3248 4.3838-5.9898 29.921 3.7464 53.07 29.273 53.07 60.21 0 33.518-27.169 60.687-60.687 60.687-33.516 0-60.687-27.169-60.687-60.687 0-30.936 23.148-56.463 53.07-60.21zm7.6174 6.8551c3.363 0 6.1037 2.7388 6.1037 6.1037 0 3.363-2.7406 6.101-6.1037 6.101-3.363 0-6.0983-2.7379-6.0983-6.101 0-3.3649 2.7352-6.1037 6.0983-6.1037zm-16.108 1.7199c-0.0997 0.0315-0.1991 0.0614-0.29569 0.095-6.4631 2.2019-12.41 5.6354-17.568 10.108-0.93336 0.80741-1.8368 1.6479-2.7128 2.5201l0.85723 2.0047c1.0148-1.0426 2.0766-2.0474 3.1766-3.003 3.9668-3.4408 8.4303-6.2496 13.255-8.32 0.18163-0.0776 0.362-0.15717 0.54526-0.23329l0.43675-0.18176-0.0217 0.47473c-0.042 0.86363-0.62686 1.7619-1.2831 2.3601 0.7145 0.58276 1.5696 1.0868 2.3357 1.568 1.237 0.77776 3.2182 1.9785 3.5293 3.5212 0.0419 0.21103 0.0547 0.4235 0.0379 0.6348l-0.0217 0.21702-0.2143 0.0543c-0.45566 0.0982-1.3584-0.4503-1.7362-0.67818-0.8445-0.50763-1.665-1.0843-2.4632-1.6602-0.72964-0.52784-1.4509-1.0677-2.1621-1.6195-0.39791-0.3092-0.80298-0.62352-1.1882-0.94947-1.126 0.60192-2.2188 1.2226-3.3096 1.88l1.4378 1.2343 1.4242-0.83282 4.1668 2.8728c0.74444 0.53892 1.5078 1.0493 2.2597 1.5734 0.78516 0.54441 1.5904 1.113 2.3275 1.7334l3e-3 -0.39878 3e-3 -0.0139c0.0472-0.46458 0.28313-0.89866 0.52357-1.2913 0.25564-0.42049 0.53046-0.82597 0.73787-1.2723 0.57775-1.2426 0.32013-2.3191-0.39064-3.4506-0.96114-1.526-2.9054-2.3181-4.2536-3.4533l-0.14921-0.1275 0.0543-0.18446c0.19791-0.70926 0.51356-1.3304 0.75415-2.0156 0.40211-1.137 0.29036-2.0787-0.095-3.1658zm32.084 0.0245-2.9054 9.1555c-0.16274 0.51497-0.3642 1.0715-0.79755 1.4215-0.16484 0.13542-0.35263 0.23549-0.53983 0.33366-0.15015 0.0799-0.29844 0.15735-0.44489 0.23872 0.69628 1.3537 1.3315 2.7577 2.0834 4.08 0.80558-2.313 1.6075-4.63 2.3113-6.9745 0.27245-0.91483 0.54232-1.8287 0.82197-2.7399 0.49607-1.6168 1.0167-3.2302 1.5408-4.8396zm4.788 1.7497-2.5853 8.8246c-0.21313 0.72963-0.38551 1.455-0.57239 2.1865-0.0924 0.35538-0.19738 0.77783-0.4693 1.039-0.2483 0.23517-0.71391 0.36123-1.1176 0.45573 0.67781 1.2334 1.3646 2.4588 2.0536 3.6866 1.2815-4.3594 2.5633-8.7188 3.8467-13.078l0.10306-0.34723 0.32011 0.16548c0.85005 0.43676 1.6985 0.88157 2.5337 1.3482 0.72596 0.40736 1.4401 0.83005 2.1512 1.256l0.2767 0.16277-3.5537 5.0891c1.1964 0.0472 1.8871 0.20745 2.9705 0.74059-0.021-0.1575-0.0408-0.31454-0.0597-0.47203-0.0262-0.24252-0.0418-0.4872 6e-3 -0.72973 0.0835-0.40737 0.35333-0.78349 0.58867-1.115 0.51498-0.71671 1.0425-1.4198 1.5463-2.1458l0.17091-0.24959 0.24956 0.17633c1.6649 1.1908 3.2424 2.4854 4.7962 3.8168l0.23059 0.19804-4.2482 4.8368c0.42573 0.0472 0.84376 0.12528 1.2642 0.25499 0.57414 0.17796 1.1489 0.43996 1.7063 0.69719-0.0111-0.13542-0.0247-0.27052-0.0353-0.40964-0.021-0.20945-0.0333-0.42034 0.0245-0.62392 0.0944-0.37797 0.42981-0.71424 0.68903-0.99017 0.64449-0.68888 1.2882-1.3624 1.9179-2.0698l0.19803-0.22516 0.22245 0.20074c1.0908 0.97037 2.0747 2.1821 3.0247 3.2933l0.21974 0.2577-0.28484 0.1899c-1.8797 1.226-2.1743 3.1174-0.88165 4.9155 3.9482 5.4872 6.6633 11.759 7.9429 18.398l0.25772 1.3211-0.60766-0.42047c-1.2473-0.86604-2.6816-1.6164-4.1342-2.2217 1.0093 0.79262 2.0069 1.5958 2.9922 2.4144 0.87226 0.72038 1.7353 1.4563 2.5798 2.2082 0.463 0.41314 0.92991 0.83521 1.3781 1.2723-0.11653-1.0038-0.20908-2.0138-0.36079-3.0139-1.1519-7.5761-4.0699-14.764-8.5533-20.98-0.68893-0.95746-0.40483-1.9045 0.41778-2.6341l0.24415-0.21973 1.4595 1.9911c4.8705 6.9354 7.9231 14.952 8.8843 23.373 0.17587 1.539 0.22369 3.03-0.71345 4.2319l3.0003-0.15463c-0.0667-1.3834-0.10709-2.7672-0.26042-4.1451-0.90743-8.1632-3.7039-15.973-8.1762-22.86-0.56485-0.86852-1.1529-1.7266-1.7714-2.5581-1.0556-1.4223-2.1888-2.7657-3.3611-4.0936-0.55555-0.62589-1.1202-1.2466-1.709-1.8392-1.6686-1.6741-3.4202-3.2378-5.298-4.6768-1.2445-0.95373-2.5335-1.8447-3.8521-2.691-1.1945-0.76854-2.4138-1.4829-3.6731-2.1404-1.3056-0.68149-2.6414-1.2999-3.9878-1.8962zm10.574 1.0444c-0.68522 0.0157-1.2283 0.58353-1.2153 1.2669 0.0157 0.68338 0.58354 1.2274 1.2669 1.2126 0.68522-0.0157 1.2274-0.57899 1.2126-1.2642-0.0157-0.68521-0.58083-1.2282-1.2642-1.2153zm-31.338 9.397c3.2853 0 5.9734 2.6112 6.0956 5.865-1.976-0.35538-4.014-0.54254-6.0956-0.54254-2.0797 0-4.1169 0.18684-6.0928 0.54254 0.12389-3.2538 2.8094-5.865 6.0928-5.865zm-39.658 3.1332c-2.5593 3.0279-4.8261 6.1827-6.7114 9.6791-0.79258 1.4667-1.5092 2.9708-2.1648 4.5005 0.99073 0.60185 2.1292 1.24 3.22 1.5734 0.66485 0.20368 1.436 0.32827 2.0915 0.0217 0.64822-0.30552 1.0576-0.97817 1.3428-1.606 0.20945-0.45198 0.43168-0.90105 0.6592-1.3455 0.61298-1.1908 1.2905-2.3564 2.0183-3.4805 0.54821-0.84816 1.145-1.7179 1.7931-2.4957 0.17585-0.21313 0.39047-0.36756 0.6592-0.43948 0.30552-0.0797 0.62388-0.0424 0.93318-0.0111 0.19791 0.021 0.38696 0.0378 0.57782 0.0325v-6e-3c-0.60002-1.0889-1.0902-2.2-1.4106-3.3964-1.2148 1.4723-2.3944 2.9824-3.4777 4.5547-0.94265 1.3667-1.8002 2.7733-2.5798 4.24-0.29607 0.55744-0.57943 1.1179-0.85723 1.6846-0.42942 0.87778-1.5991 0.52887-2.238 0.1139l-0.21972-0.14648 0.11389-0.23603c2.0538-4.3001 4.5786-8.2256 7.6879-11.828-0.4798-0.47036-0.95812-0.94028-1.4378-1.4106zm39.658 3.749c4.3927 0 8.6546 0.86177 12.666 2.5581 3.8742 1.6389 7.3548 3.9836 10.344 6.9745 2.9871 2.9871 5.3347 6.4677 6.9718 10.344 1.6963 4.0094 2.5554 8.2677 2.5554 12.66 0 4.3946-0.85908 8.6546-2.5554 12.666-1.6371 3.8742-3.9847 7.3548-6.9718 10.344-2.989 2.989-6.4696 5.3329-10.344 6.9718-4.0112 1.6964-8.2731 2.5581-12.666 2.5581s-8.6538-0.86175-12.663-2.5581c-3.8761-1.6389-7.3539-3.9828-10.341-6.9718-2.989-2.989-5.3374-6.4696-6.9745-10.344-1.6963-4.0112-2.5554-8.2713-2.5554-12.666 0-4.3927 0.8591-8.6511 2.5554-12.66 1.6371-3.876 3.9855-7.3566 6.9745-10.344 2.9871-2.9908 6.465-5.3356 10.341-6.9745 4.0094-1.6964 8.2704-2.5581 12.663-2.5581zm29.2 0.82197c-0.68338 0.0157-1.2274 0.58081-1.2126 1.2642 0.0157 0.68337 0.58164 1.2283 1.2668 1.2153 0.68333-0.0157 1.2248-0.58348 1.2099-1.2669-0.0157-0.68332-0.58082-1.2274-1.2642-1.2126zm-29.49 7.0993-3e-3 14.258-11.564 0.0111-0.0217-7.3922c-0.59629 0.58893-1.9219 1.6557-3.0627 1.9668 0.0157 0.0157 0.0428 0.0383 0.0543 0.0489l0.65378 0.51542c0.4777 0.52779 0.32911 0.81655 0.29026 1.7036-1.976 0.13542-3.1088 1.5673-3.1088 3.6025 0 1.9075-0.16429 1.636 0.82467 1.6249 2.2075-0.0263 16.157 0.10514 17.937-0.0111l3e-3 -3e-3c0.13912-0.81856 0.0325-8.0573 0.0325-10.159 0-0.91483-0.15428-1.9673 0.24415-2.5635 0.2336-0.34806 0.50122-0.3474 0.72159-0.6565-0.63702-0.61486-0.80069-0.23142-2.3248-2.1241-0.15171-0.18529-0.1859-0.2293-0.29298-0.40148zm4.4109 3e-3 -3e-3 16.32 2.1024 0.0163c0.21838-1.1241-0.12084-8.4056 0.0433-11.467 0.0315-0.56295 0.24991-1.1229 0.66461-1.4378l0.40964-0.33095c-0.64449-0.25355-1.4425-0.93093-1.8203-1.3347-0.54076-0.57781-1.2156-1.6253-1.3971-1.766zm9.8717 0.21159c-0.0368 3.2538 0.0207 5.1636-0.0111 8.4285 1e-3 0.37797 0.0111 0.66053 6e-3 0.87351-4e-3 0.33124-0.52522 0.68904-0.76229 0.9983-0.44988-0.49451-0.79023-0.86731-0.79213-0.97659-1e-3 -0.4205-3e-3 -0.60419-3e-3 -1.5246 0-4.9409-6e-3 -3.9714-0.0111-7.6771-1.0742 0.97782-1.422 2.2539-3.022 2.8891 0.0997 0.13542 0.0282 0.0482 0.14106 0.16006 1.0667 1.0667 0.78128-0.65724 0.78128 2.0373l-6e-3 4.6171c6e-3 0.61671 0.62021 1.363 1.1258 1.6575l-0.491 0.49102c-0.27614 0.27402-0.59139 0.37925-0.59139 0.90878l6e-3 3.551h5.7402c0-0.9204-1e-3 -1.8403 0-2.7589 1e-3 -1.5649-0.15912-1.5206-0.96303-2.3466 0.95376-0.90194 0.97232-0.85249 0.96303-1.7741l-3e-3 -3.2065c0-2.0797-0.36567-2.4707 0.96032-3.1929l-0.26043-0.21973c-1.876-1.2426-1.7225-1.9907-2.8077-2.9352zm-67.48 5.3007c-1.3038 1.3501-2.2297 3.0736-1.2316 4.9236 0.57415 1.0649 1.6548 1.9376 2.6938 2.5283l0.1899 0.10584-0.0433 0.21429c-0.64632 3.3372-0.96846 6.732-0.96846 10.132 0 14.465 5.8554 28.168 16.293 38.174l0.14649 0.14378c0.44464 0.42205 0.89797 0.83772 1.3591 1.2451l6e-3 -6e-3 0.21702 0.19262c0.98339 0.87414 1.9837 1.7041 3.0356 2.493l5.8921-9.1881c0.30762-0.49607 0.68618-0.99595 1.2696-1.1719 0.22573-0.0667 0.46886-0.084 0.70804-0.084-0.17954-0.65188-0.32793-1.3248-0.48017-1.9803-0.12237-0.52778-0.24583-1.0583-0.37707-1.5842-0.0419-0.17796-0.0907-0.36549-0.14106-0.55069-2.4149 3.7539-4.8445 7.496-7.2593 11.25l-0.18717 0.29025-0.25772-0.22245c-0.82227-0.70002-1.6237-1.4177-2.4089-2.1566-0.9519-0.8963-1.8576-1.8382-2.7317-2.8104l-0.21159-0.2333 4.3268-3.5347c-0.56668-0.28715-1.1502-0.65512-1.6521-0.98473-0.25566-0.17061-0.51303-0.34823-0.765-0.53171 6e-3 0.074 0.0111 0.14958 0.0217 0.22516 0.021 0.19056 0.0357 0.38914-0.0325 0.5724-0.0835 0.2315-0.27919 0.39333-0.46658 0.53983-0.34437 0.27245-0.69906 0.52973-1.0417 0.80569-0.49451 0.39267-0.97683 0.78914-1.4676 1.1855l-0.2333 0.1899-0.18989-0.2333c-1.1445-1.4093-2.214-2.8778-3.2011-4.4001l-0.16818-0.26313 4.9182-2.9596c-0.74999-0.55005-1.4687-1.1871-2.1187-1.8501-0.18897 0.64448-0.72352 1.1171-1.3347 1.4893l-2.5527 1.5436-0.1519-0.26586c-0.82781-1.4389-1.5845-2.9214-2.2679-4.4381l-0.12751-0.2767 5.2953-2.2868c-0.10028-0.10028-0.20199-0.19691-0.30383-0.29298-0.33177-0.30919-0.65318-0.61401-0.94946-0.96032-0.23309-0.27244-0.4465-0.55906-0.64293-0.85722-0.0111 0.0315-0.0193 0.064-0.0299 0.0976-0.15906 0.45933-0.5639 0.74223-0.96574 0.97931-0.3575 0.21102-0.73902 0.39647-1.115 0.57239-0.58894 0.27402-1.1851 0.53299-1.7796 0.78669l-0.28484 0.12209-0.11389-0.28755c-1.4797-3.7909-2.495-7.7453-3.0247-11.779l-0.0597-0.44218 0.43133 0.1139c1.4945 0.38898 2.964 1.1965 4.3214 1.9206 0.20577 0.10765 0.4131 0.21791 0.61851 0.32553l-0.20889-2.6938-3.7355-1.1068 0.51-0.35808c0.46459-0.326 1.0205-0.59047 1.5408-0.82196 0.48138-0.21681 0.97527-0.412 1.4567-0.62666l-0.21159-2.7154c-0.5704 0.43518-1.1339 0.88159-1.7117 1.3075-0.80371 0.59072-1.9451 1.399-2.9081 1.6656l-0.34723 0.095-0.084-1.0742v-3e-3c-0.0368-0.76486-0.0543-1.5301-0.0543-2.295 0-3.1908 0.29989-6.3756 0.8925-9.5109l0.0543-0.28755 0.29026 0.0461c1.9111 0.30921 3.463-0.49013 4.826-1.7552 0.3869-0.35749 0.85605-0.6186 1.332-0.84638-0.12542-0.0954-0.25906-0.17741-0.40691-0.21973-0.19633-0.0557-0.38934-0.0351-0.59138-0.0299l-0.19533 3e-3 -0.084-0.17633c-0.47403-1.0019-0.71862-1.983-1.6575-2.6775-0.27402-0.2-0.57681-0.37001-0.88979-0.49914-0.54999-0.22572-1.1743-0.34459-1.7687-0.23329-1.4186 0.26299-1.9768 1.6637-2.1675 2.9433l-0.0489 0.32553-0.31739-0.0786c-2.3223-0.55004-2.1606-2.961-1.9179-4.9074zm5.4933 3.4805c0.0924 1.6e-4 0.18542 8e-3 0.27941 0.0271 0.74999 0.15381 1.2379 0.88933 1.0824 1.6412-0.15381 0.75-0.88934 1.2361-1.6412 1.0824-0.75005-0.15381-1.2361-0.88934-1.0824-1.6412 0.13459-0.65791 0.71493-1.1106 1.3618-1.1095zm61.224 3.7246c0.28715 0.34646 0.71715 0.85361 0.75415 1.0092v0.83824h-1.5517l-3e-3 -0.83552c0-0.15749 0.52803-0.72477 0.80026-1.0119zm-27.155 0.49644-0.0111 1.0525h-0.97931c0.0368-0.67781 0.3325-0.98771 0.99016-1.0525zm23.728 5.222c-0.0368 3.2538 0.0207 5.1636-0.0111 8.4285 1e-3 0.37796 0.0111 0.65864 6e-3 0.8735-6e-3 0.33125-0.52712 0.68905-0.76229 0.9983-0.45199-0.4945-0.793-0.86363-0.79483-0.97659-6e-3 -0.4184-3e-3 -0.60417-3e-3 -1.5246 0-4.9409-6e-3 -3.9706-0.0111-7.6744-1.0741 0.97599-1.422 2.2502-3.022 2.8891 0.0997 0.13126 0.026 0.0418 0.13834 0.15734 1.0686 1.0685 0.78398-0.65452 0.78398 2.04l-6e-3 4.6144c4e-3 0.61671 0.61836 1.3649 1.1258 1.6575l-0.491 0.4937c-0.27402 0.27246-0.58867 0.37906-0.58867 0.90878l6e-3 3.551h5.7348v-2.7616c1e-3 -1.563-0.15824-1.5168-0.96031-2.3465 0.95373-0.90003 0.97231-0.85003 0.96302-1.7742l-3e-3 -3.2038c0-2.0815-0.36273-2.4742 0.96303-3.1983l-0.26586-0.21702c-1.8741-1.2408-1.717-1.9907-2.8023-2.9352zm-14.345 0.0489-6e-3 14.318h-3.1576l-0.0139-9.6574c0-1.1519 0.50192-1.0629 0.96303-1.6629-0.32757-0.34069-0.8607-0.45389-1.6792-1.3482-0.2483-0.27034-0.47821-0.53247-0.68362-0.8084-0.19791-0.26299-0.429-0.69791-0.63478-0.82195l-0.0111 14.302-2.0807-0.0163-3e-3 -7.4275c-0.25566 0.12598-0.22223 0.11986-0.42591 0.33095-1.0574 1.0815-2.1985 1.3348-2.6504 1.7145 0.72969 0.35014 1.0119 0.5684 1.0119 1.587 0 0.1813 1e-3 0.24587 3e-3 0.28756 4e-3 -0.0635 3e-3 0.10514 0 0.0407-3e-3 0.0412-8e-3 0.10708-0.0139 0.28755-1.1537 0.25932-1.7169 0.38801-2.3058 1.1122-0.95746 1.176-0.81112 2.6412-0.81112 4.1505h14.532v-11.727c0-0.70375 0.14178-0.94128 0.62121-1.3672 0.0871-0.0776 0.10667-0.085 0.19532-0.16278 0.10181-0.0871 0.0825-0.0632 0.1492-0.1357-0.64449-0.52778-0.89757-0.4701-1.6846-1.3238-0.25198-0.27401-0.46536-0.52004-0.67277-0.81654-0.2168-0.30395-0.40034-0.65824-0.64292-0.85452zm18.406 0.0379-0.0244 16.35h2.1431v-11.375c0-0.97968 0.48505-1.4139 1.0797-1.8175-0.3554-0.19634-0.69443-0.42606-1.0037-0.65378-0.33544-0.24621-0.53229-0.49649-0.81383-0.765-0.60185-0.57592-1.1992-1.5685-1.3808-1.7389zm-14.001 0.0163 0.0271 16.333 2.0807-3e-3c0.14804-0.75373 0.038-8.1192 0.038-10.167 0-1.4908-0.32388-2.0096 0.71889-2.767l0.35808-0.2984c-0.65373-0.25356-1.486-0.96424-1.8582-1.3754zm40.558 6.3424c-0.23308 0.21313-0.47035 0.42174-0.70531 0.62937-0.92781 0.82407-1.8273 1.6664-2.7236 2.5201l15.693 0.53169 0.0786-2.1078c-2.3927-0.0525-4.7763-0.17566-7.1671-0.26856-0.86297-0.0315-1.716-0.0354-2.5771-0.0407-0.39633-4e-3 -0.84681-7e-3 -1.2153-0.16277-0.24987-0.10555-0.45925-0.27121-0.6592-0.44759-0.2462-0.21313-0.4834-0.43682-0.7243-0.65378zm-1.2397 4.9968c-0.97782 0.9667-1.9794 1.8951-2.9813 2.8321 4.4501-0.18163 8.9377 0.34148 13.371 0.66191l0.34452 0.0271-0.0732 0.33637c-0.37796 1.7704-0.81535 3.5178-1.3672 5.2438l-0.0706 0.21161-0.22244-3e-3c-1.2408-0.021-2.3993 0.59313-3.079 1.6358-0.95929 1.4685-0.7218 3.4164 0.56154 4.609l0.16005 0.15191-0.0976 0.19803c-0.72779 1.4871-1.5436 2.9164-2.3899 4.335l-0.14379 0.24416-3.589-1.8257c0.11125 0.53152 0.19365 1.1146 0.20888 1.5924 0.0111 0.36116-6e-3 0.72587-0.0163 1.0851-6e-3 0.26667-0.01 0.55413 6e-3 0.83009 0.87965-0.21313 1.7554-0.0231 2.5554 0.43677 0.51655 0.29606 1.0349 0.58545 1.5571 0.87622 0.37587 0.21102 0.7583 0.42748 1.1231 0.6592 0.4798 0.30184 0.99921 0.66825 1.2289 1.2072 0.25566 0.59445 0.11667 1.4289-0.0299 2.1159 0.37954-0.115 0.74524-0.41765 0.97117-0.68633 0.51288-0.61297 0.72325-1.4012 0.65106-2.1919-0.0761-0.82785-0.50022-1.452-1.0987-2.002-0.26299-0.23886-0.54407-0.45263-0.82738-0.66734-0.22416-0.17008-0.48612-0.37069-0.66191-0.59138l-0.12751-0.16005 0.81111-1.3889c0.58149-1.0111 1.1265-2.0425 1.6358-3.0926l0.0894-0.17903 0.20074 0.0111c1.2945 0.0835 2.5469-0.53782 3.258-1.6249 0.99629-1.5259 0.69817-3.5588-0.69447-4.731l-0.15203-0.13042 0.0597-0.1926c0.31129-0.9593 0.59355-1.925 0.8491-2.8972 0.27402-1.0482 0.49643-2.0973 0.68903-3.1604 0.13681-0.75101 0.26493-1.4988 0.37979-2.2516l-7.631-0.28213c-0.95562-0.0368-1.9055-0.0111-2.8592-0.0379-0.58521-0.0157-1.2266-0.0533-1.747-0.34995-0.36326-0.20577-0.63143-0.51026-0.8518-0.85452zm-29.924 1.0634c0.28871 0.34647 0.71524 0.85443 0.75414 1.0119v0.83825l-1.5544-3e-3v-0.83551c0-0.15751 0.52618-0.72665 0.80026-1.0119zm-23.281 0.86537c0.0358 5.8e-4 0.0707 3e-3 0.10848 8e-3l-6e-3 0.98474-0.30653 0.0271-0.34996 3e-3 -0.32824-0.019c0.0344-0.55209 0.34433-1.0125 0.88165-1.0037zm2.1458 4.8992c-0.60695 0.75503-2.0916 1.6172-3.0084 2.0047 0.47521 0.39448 0.96845 0.54643 0.96845 1.4649l-0.0139 0.65107c-3.2519 0.23728-3.108 3.0255-3.1061 5.2275l5.1895-6e-3zm14.527 1.8094c-0.48799-0.0111-0.88057 0.24658-1.1963 0.49644 6e-3 0.0111 0.0181 0.0221 0.0217 0.0325 1.3612 1.6371 2.7216 3.2757 4.0827 4.9128h-4.6307c-4e-3 -1.1741-0.49901-1.9554-1.199-2.474-0.83336-0.61793-1.9546-0.57782-3.1305-0.57782h-2.2326c-2.7688 0-1.6749-0.10042-2.6287-0.94675-0.12598 0.13514-0.74884 1.3372-0.93047 1.6222-0.42778 0.67781-0.95019 1.0416-1.0688 1.3455 2.1334 0.11236 4.7475 0.0161 7.2105 0.0111 1.0667-4e-3 1.8627-0.0975 1.9478 1.0173l-9.0416 0.0111v2.0888l17.448-6e-3 0.45302 0.42318c0.64816 0.60579 2.5978 0.3093 1.9884-0.42591l-5.3306-6.4075-3e-3 -3e-3c-0.69055-0.82816-1.2732-1.1086-1.7606-1.1204zm11.442 2.0861c-1.1527-0.0385-2.2866 0.85501-2.8158 2.4008-0.41625 1.2206-0.45507 2.6074-0.19531 3.1441 1.026-0.0725 2.114-4e-3 3.1604-0.0353-0.46301 1.8242-1.9119 2.0481-3.9823 2.0481 0.17061 0.34646 0.36749 0.38955 0.74871 0.58054 4.0798 2.0593 7.3674-2.7035 5.534-6.2258-0.64492-1.2882-1.5531-1.8826-2.4496-1.9125zm34.004 0.44762c0.33612-6e-3 0.67652 0.0849 0.97931 0.28211 0.80374 0.52594 1.0306 1.6088 0.50457 2.4144-0.52595 0.80371-1.6088 1.0305-2.4144 0.50459-0.80376-0.52597-1.0306-1.6069-0.50457-2.4144 0.3287-0.50231 0.87484-0.77773 1.435-0.78669zm-34.322 1.6955c0.49276-0.0279 1.0496 0.42346 0.77584 1.0742-1e-3 4e-3 -0.2062 0.70977-1.0227 0.36351-0.42783-0.18531-0.47697-0.70758-0.30112-1.0742 0.11334-0.23788 0.324-0.35081 0.54798-0.36351zm-27.689 0.18988-0.0163 1.0553-0.95761-0.0163c0.063-0.63703 0.3536-0.95752 0.97387-1.039zm51.141 10.957c-0.97983-0.043-1.9577 0.4326-2.7941 1.3347-4.5909 4.9594-10.195 8.8637-16.447 11.44l-1.2452 0.51271 0.29026-0.67548c0.60002-1.3945 1.0526-2.9541 1.3564-4.5004-0.57409 1.1463-1.1658 2.2857-1.7714 3.4154-0.53518 0.99631-1.0835 1.9926-1.6521 2.9705-0.31288 0.53519-0.63498 1.0746-0.97388 1.6005 0.96301-0.31287 1.9309-0.60588 2.881-0.95218 7.1965-2.6334 13.66-6.9213 18.862-12.549 0.80187-0.86853 1.787-0.77854 2.6666-0.11931l0.26584 0.20075-1.6656 1.823c-5.4891 5.7964-12.25 10.208-19.771 12.886-2.1667 0.77225-4.4163 1.3921-6.6571 1.9125l-0.28755 0.0651-0.96845-3.8169c-0.57592 0.92597-1.568 1.8101-2.4144 2.4361 1.0945 0.84443 1.7014 2.8189 1.9125 4.0393 0.11653 0.68149 0.24063 1.5147 0.16818 2.2055-0.0472 0.43886-0.17666 0.82836-0.51 1.1339-0.15013 0.13544-0.32172 0.23744-0.49914 0.32826 0.90743 0.0263 1.921-0.0854 2.4822-0.65378 0.80558-0.81855 0.53599-2.4292 0.30654-3.4181l-0.0651-0.28757 0.28484-0.0705c2.2038-0.53702 4.3987-1.0893 6.5432-1.8338 7.3521-2.5538 14.03-6.7047 19.586-12.159 0.73893-0.72596 1.4586-1.4704 2.1512-2.2407 0.66485-0.73891 1.3012-1.49 1.9179-2.2679l-1.728-1.6683c-0.6992-0.70813-1.4624-1.057-2.2244-1.0905zm-57.844 0.99015c-1.3074 1.9667-2.6054 3.9403-3.8277 5.9626-0.54076 0.89814-1.0733 1.7974-1.6141 2.6938-0.85006 1.4186-1.7157 2.8308-2.588 4.2346l1.8528 1.1502 5.062-8.1301c0.30184-0.48347 0.65557-1.009 1.1963-1.2479 0.18529-0.0814 0.38409-0.12959 0.58053-0.17362 0.14645-0.0315 0.28739-0.0618 0.42861-0.095zm8.415 3.966-0.26043 0.30112-0.0111 0.0111c-0.33911 0.32022-0.8 0.49297-1.237 0.63207-0.46878 0.15013-0.9435 0.27262-1.3916 0.47474-1.2519 0.56111-1.7658 1.5433-1.9695 2.8674-0.27245 1.7797 0.67626 3.6512 0.95217 5.3957l0.0325 0.18989-0.16277 0.10848c-0.61486 0.40579-1.2593 0.66797-1.8908 1.0254-1.0482 0.59818-1.5816 1.3828-2.002 2.455 0.0961 0.0419 0.19036 0.0881 0.28485 0.12473 6.3261 2.5704 13.069 3.8711 19.895 3.8711 1.2353 0 2.4687-0.0425 3.7002-0.13014l0.66734-2.0753c-1.4519 0.12598-2.9101 0.1899-4.3675 0.1899-5.2501 0-10.462-0.8036-15.465-2.3981-0.18898-0.0593-0.37554-0.11875-0.56425-0.18175l-0.45032-0.14921 0.32824-0.34181c0.5963-0.62783 1.6313-0.91994 2.5202-0.94404l-3e-3 -3e-3c-0.15906-0.90743-0.47753-1.8506-0.74058-2.7155-0.42783-1.3982-1.1361-3.6039-0.35809-4.9725 0.10556-0.18529 0.23194-0.35381 0.38522-0.50185l0.16005-0.15463 0.1926 0.10848c0.40737 0.22047 0.73102 1.2273 0.86808 1.6439 0.30552 0.93708 0.54904 1.9126 0.77315 2.8701 0.20735 0.87595 0.39647 1.7561 0.57238 2.6395 0.0982 0.49452 0.1969 0.99744 0.2767 1.4974 1.2445 0.2798 2.4763 0.52562 3.73 0.746l-0.27399-1.8745-1.6249-0.30382-1.2669-4.902c-0.20735-0.89446-0.44969-1.7786-0.67548-2.6694-0.23517-0.92596-0.47226-1.8811-0.62392-2.8348zm19.003 5.846c-0.68521 0.0157-1.2283 0.58348-1.2153 1.2669 0.0157 0.68516 0.58163 1.2274 1.2668 1.2126 0.68333-0.0111 1.2256-0.58077 1.2126-1.2641-0.0157-0.68706-0.58081-1.2301-1.2641-1.2153z"/>
 </g>
</svg>
